if (_typeface_js && _typeface_js.loadFace) _typeface_js.loadFace({"glyphs":{"S":{"x_min":59.890625,"x_max":669.671875,"ha":744,"o":"m 59 237 b 366 -11 59 34 140 -11 b 669 272 588 -11 669 34 b 372 561 669 516 616 544 b 166 741 190 573 166 598 b 367 919 166 890 181 919 b 575 755 530 919 575 887 l 575 733 l 662 733 b 367 1016 657 966 607 1016 b 70 741 144 1016 70 986 b 277 476 70 550 110 490 l 378 468 b 574 286 574 451 574 413 b 364 86 574 95 549 86 b 147 256 179 86 147 106 l 147 315 l 59 315 l 59 237 "},"¦":{"x_min":111.609375,"x_max":190.5625,"ha":308,"o":"m 111 -11 l 190 -11 l 190 373 l 111 373 l 111 -11 m 111 631 l 190 631 l 190 1016 l 111 1016 l 111 631 "},"/":{"x_min":-44,"x_max":446,"ha":411,"o":"m -44 -11 l 40 -11 l 446 1016 l 361 1016 l -44 -11 "},"y":{"x_min":15,"x_max":516,"ha":542,"o":"m 95 -255 b 136 -261 104 -259 122 -261 b 329 -73 246 -261 299 -197 l 516 708 l 428 708 l 280 88 l 277 88 l 100 708 l 15 708 l 217 0 l 257 0 b 95 -172 224 -150 205 -172 l 95 -255 "},"≈":{"x_min":64,"x_max":706.453125,"ha":789,"o":"m 666 603 b 536 498 628 534 592 498 b 405 547 485 498 453 520 b 250 605 367 567 317 605 b 64 473 171 605 104 555 l 104 440 b 240 544 138 495 176 544 b 370 497 287 544 328 522 b 532 437 436 460 476 437 b 706 569 616 437 671 497 l 666 603 m 666 368 b 536 264 628 300 593 264 b 405 314 485 264 450 287 b 250 371 367 333 318 371 b 64 237 171 371 104 321 l 104 204 b 242 311 138 259 176 311 b 370 262 287 311 328 287 b 532 203 436 225 476 203 b 706 334 616 203 671 262 l 666 368 "},"Ž":{"x_min":35,"x_max":672,"ha":722,"o":"m 35 0 l 672 0 l 672 96 l 143 96 l 665 907 l 665 1005 l 54 1005 l 54 907 l 556 907 l 35 96 l 35 0 m 307 1050 l 399 1050 l 553 1244 l 465 1244 l 353 1106 l 240 1244 l 153 1244 l 307 1050 "},"Á":{"x_min":15,"x_max":766,"ha":797,"o":"m 572 309 l 208 309 l 383 908 l 397 908 l 572 309 m 666 0 l 766 0 l 457 1005 l 323 1005 l 15 0 l 114 0 l 178 212 l 602 212 l 666 0 m 304 1051 l 374 1051 l 561 1244 l 455 1244 l 304 1051 "},"g":{"x_min":72.140625,"x_max":582.5625,"ha":668,"o":"m 167 372 b 319 630 167 559 179 630 b 495 372 461 630 495 573 b 319 113 495 170 461 113 b 167 372 179 113 167 184 m 495 23 b 325 -172 495 -141 466 -172 b 178 -63 213 -172 178 -147 l 91 -63 b 306 -261 88 -212 171 -261 b 582 6 518 -261 582 -202 l 582 708 l 495 708 l 495 612 l 492 612 b 311 719 454 697 400 719 b 72 372 87 719 72 568 b 311 25 72 176 87 25 b 492 127 396 25 457 48 l 495 127 l 495 23 "},"²":{"x_min":39.46875,"x_max":451.890625,"ha":501,"o":"m 39 406 l 449 406 l 449 479 l 126 479 l 126 526 b 277 634 126 597 138 626 b 451 818 439 644 451 709 b 250 1016 451 987 394 1016 b 47 852 54 1016 47 954 l 47 813 l 118 813 l 118 840 b 242 944 118 927 134 944 b 364 838 349 944 364 922 b 232 706 364 730 349 723 b 39 519 81 686 39 656 l 39 406 "},"–":{"x_min":0,"x_max":680.5625,"ha":694,"o":"m 0 327 l 680 327 l 680 408 l 0 408 l 0 327 "},"ë":{"x_min":59.890625,"x_max":558.0625,"ha":643,"o":"m 155 422 b 313 638 155 572 157 638 b 470 422 468 638 470 572 l 155 422 m 558 333 l 558 440 b 315 719 558 633 524 719 b 59 354 106 719 59 647 b 315 -11 59 66 87 -11 b 558 184 524 -11 558 43 l 558 211 l 470 211 b 300 69 470 72 441 69 b 155 268 181 69 155 113 l 155 333 l 558 333 m 164 805 l 251 805 l 251 923 l 164 923 l 164 805 m 379 805 l 466 805 l 466 923 l 379 923 l 379 805 "},"ƒ":{"x_min":47.78125,"x_max":654.953125,"ha":772,"o":"m 211 555 l 324 555 l 254 72 b 128 -172 222 -159 182 -172 b 47 -141 98 -172 69 -158 l 47 -233 b 147 -261 77 -254 104 -261 b 340 31 241 -261 306 -205 l 416 555 l 567 555 l 567 644 l 429 644 b 588 927 454 826 487 927 b 654 913 611 927 633 922 l 654 1005 b 584 1016 631 1009 608 1016 b 336 644 401 1016 369 869 l 211 644 l 211 555 "},"Î":{"x_min":-49,"x_max":351.171875,"ha":308,"o":"m 103 0 l 198 0 l 198 1005 l 103 1005 l 103 0 m -49 1050 l 38 1050 l 151 1188 l 262 1050 l 351 1050 l 197 1244 l 104 1244 l -49 1050 "},"e":{"x_min":59.890625,"x_max":558.0625,"ha":643,"o":"m 155 422 b 313 638 155 572 157 638 b 470 422 468 638 470 572 l 155 422 m 558 333 l 558 440 b 315 719 558 633 524 719 b 59 354 106 719 59 647 b 315 -11 59 66 87 -11 b 558 184 524 -11 558 43 l 558 211 l 470 211 b 300 69 470 72 441 69 b 155 268 181 69 155 113 l 155 333 l 558 333 "},"Ã":{"x_min":14.671875,"x_max":766.578125,"ha":797,"o":"m 573 309 l 207 309 l 383 908 l 397 908 l 573 309 m 667 0 l 766 0 l 457 1005 l 323 1005 l 14 0 l 114 0 l 178 212 l 603 212 l 667 0 m 548 1209 b 488 1140 543 1175 526 1140 b 398 1172 464 1140 431 1155 b 297 1202 365 1188 331 1202 b 178 1068 228 1202 183 1133 l 232 1068 b 292 1138 237 1104 254 1138 b 382 1108 318 1138 349 1125 b 483 1076 415 1091 450 1076 b 603 1209 552 1076 597 1145 l 548 1209 "},"J":{"x_min":32.671875,"x_max":547.171875,"ha":643,"o":"m 451 216 b 289 86 451 111 413 86 b 127 216 166 86 127 111 l 127 361 l 32 361 l 32 213 b 289 -11 32 30 125 -11 b 547 213 454 -11 547 30 l 547 1005 l 451 1005 l 451 216 "},"»":{"x_min":52,"x_max":478,"ha":540,"o":"m 52 118 l 149 118 l 294 368 l 164 618 l 68 618 l 194 368 l 52 118 m 235 118 l 333 118 l 478 368 l 348 618 l 252 618 l 378 368 l 235 118 "},"∆":{"x_min":44.046875,"x_max":837.578125,"ha":899,"o":"m 44 0 l 837 0 l 837 68 l 495 1016 l 391 1016 l 44 66 l 44 0 m 136 77 l 353 662 b 436 904 377 737 423 850 l 441 904 b 534 640 459 837 509 716 l 738 77 l 136 77 "},"©":{"x_min":40.828125,"x_max":1048.0625,"ha":1111,"o":"m 733 397 b 560 247 720 315 656 247 b 340 504 424 247 340 372 b 558 756 340 641 417 756 b 733 611 654 756 717 690 l 811 611 b 556 829 793 751 688 829 b 261 502 370 829 261 690 b 560 175 261 318 377 175 b 811 397 688 175 784 262 l 733 397 m 40 502 b 544 -11 40 219 266 -11 b 1048 502 822 -11 1048 219 b 544 1016 1048 786 822 1016 b 40 502 266 1016 40 786 m 111 502 b 544 944 111 747 304 944 b 977 502 784 944 977 747 b 544 61 977 258 784 61 b 111 502 304 61 111 258 "},"˘":{"x_min":-59,"x_max":335.71875,"ha":283,"o":"m -59 972 b 132 795 -45 861 19 795 b 335 972 243 795 323 855 l 281 972 b 137 859 264 895 211 859 b -4 972 66 859 3 897 l -59 972 "},"≥":{"x_min":72.140625,"x_max":699.609375,"ha":789,"o":"m 78 837 l 78 761 l 630 488 l 630 486 l 78 213 l 78 137 l 698 454 l 698 520 l 78 837 m 699 13 l 699 79 l 72 79 l 72 13 l 699 13 "},"ò":{"x_min":59.890625,"x_max":571.671875,"ha":644,"o":"m 155 354 b 315 638 155 618 176 638 b 476 354 454 638 476 618 b 315 69 476 90 454 69 b 155 354 176 69 155 90 m 59 354 b 315 -11 59 61 89 -11 b 571 354 541 -11 571 61 b 315 719 571 636 544 719 b 59 354 87 719 59 636 m 332 788 l 401 788 l 250 981 l 144 981 l 332 788 "},"^":{"x_min":64,"x_max":753,"ha":833,"o":"m 64 396 l 149 396 l 408 917 l 667 396 l 753 396 l 447 1005 l 369 1005 l 64 396 "},"«":{"x_min":52,"x_max":478,"ha":540,"o":"m 365 118 l 461 118 l 335 368 l 478 618 l 380 618 l 235 368 l 365 118 m 181 118 l 277 118 l 151 368 l 294 618 l 196 618 l 52 368 l 181 118 "},"D":{"x_min":83.03125,"x_max":762.21875,"ha":849,"o":"m 83 0 l 446 0 b 762 543 745 0 762 175 b 460 1005 762 836 748 1005 l 83 1005 l 83 0 m 178 908 l 476 908 b 666 502 637 908 666 833 b 476 97 666 183 634 97 l 178 97 l 178 908 "},"∙":{"x_min":118.421875,"x_max":259.96875,"ha":386,"o":"m 118 444 b 189 372 118 404 149 372 b 259 444 228 372 259 404 b 189 516 259 484 228 516 b 118 444 149 516 118 484 "},"ł":{"x_min":23.140625,"x_max":254.53125,"ha":283,"o":"m 95 0 l 182 0 l 182 536 l 254 596 l 254 683 l 182 623 l 182 1005 l 95 1005 l 95 551 l 23 490 l 23 403 l 95 464 l 95 0 "},"ÿ":{"x_min":14.96875,"x_max":515.859375,"ha":542,"o":"m 95 -255 b 136 -261 104 -259 122 -261 b 329 -73 246 -261 299 -197 l 515 708 l 428 708 l 280 88 l 277 88 l 100 708 l 14 708 l 217 0 l 257 0 b 95 -172 224 -150 205 -172 l 95 -255 m 114 805 l 201 805 l 201 923 l 114 923 l 114 805 m 329 805 l 416 805 l 416 923 l 329 923 l 329 805 "},"Ł":{"x_min":-4.078125,"x_max":593.4375,"ha":643,"o":"m 83 0 l 593 0 l 593 105 l 178 105 l 178 470 l 421 638 l 421 730 l 178 562 l 178 1005 l 83 1005 l 83 495 l -4 436 l -4 344 l 83 404 l 83 0 "},"í":{"x_min":53.078125,"x_max":310.328125,"ha":283,"o":"m 95 0 l 182 0 l 182 708 l 95 708 l 95 0 m 53 788 l 122 788 l 310 981 l 204 981 l 53 788 "},"ˆ":{"x_min":-61,"x_max":339,"ha":283,"o":"m -61 788 l 26 788 l 139 926 l 250 788 l 339 788 l 185 982 l 92 982 l -61 788 "},"w":{"x_min":9.546875,"x_max":848,"ha":875,"o":"m 174 0 l 300 0 l 427 619 l 430 619 l 556 0 l 683 0 l 848 708 l 762 708 l 624 88 l 622 88 l 491 708 l 366 708 l 235 90 l 232 90 l 95 708 l 9 708 l 174 0 "},"$":{"x_min":63.96875,"x_max":692.8125,"ha":772,"o":"m 424 461 b 605 281 597 454 605 431 b 424 76 605 116 585 79 l 424 461 m 345 559 b 166 741 186 568 166 601 b 345 927 166 900 198 927 l 345 559 m 345 -152 l 424 -152 l 424 -11 b 692 272 642 -11 692 61 b 424 558 692 508 645 545 l 424 927 b 601 751 573 926 601 919 l 601 725 l 688 725 l 688 769 b 424 1016 688 983 622 1009 l 424 1140 l 345 1140 l 345 1016 l 315 1016 b 78 752 134 1016 78 952 b 345 465 78 530 129 479 l 345 77 l 313 77 b 151 238 175 77 151 113 l 151 315 l 63 315 l 63 236 b 308 -11 63 65 118 -11 l 345 -11 l 345 -152 "},"∫":{"x_min":17.6875,"x_max":460.0625,"ha":493,"o":"m 460 1187 b 386 1208 446 1197 415 1208 b 262 1154 341 1208 296 1190 b 190 856 209 1097 190 1009 b 209 130 190 634 209 359 b 160 -116 209 -16 187 -80 b 96 -150 145 -138 119 -150 b 35 -133 69 -150 46 -138 l 17 -202 b 103 -225 32 -212 69 -225 b 234 -156 155 -225 205 -202 b 294 129 265 -108 294 -26 b 276 847 294 356 276 627 b 323 1102 276 984 288 1061 b 393 1137 341 1127 370 1137 b 442 1122 411 1137 431 1130 l 460 1187 "},"\\":{"x_min":-44,"x_max":446,"ha":411,"o":"m 361 -11 l 446 -11 l 40 1016 l -44 1016 l 361 -11 "},"Ì":{"x_min":-20.421875,"x_max":236.828125,"ha":308,"o":"m 103 0 l 198 0 l 198 1005 l 103 1005 l 103 0 m 167 1051 l 236 1051 l 85 1244 l -20 1244 l 167 1051 "},"µ":{"x_min":72.140625,"x_max":558.0625,"ha":643,"o":"m 72 -246 l 159 -246 l 159 30 b 270 -10 187 4 221 -10 b 468 92 370 -10 419 11 l 470 92 l 470 0 l 558 0 l 558 708 l 470 708 l 470 261 b 291 69 470 111 397 69 b 159 222 167 69 159 147 l 159 708 l 72 708 l 72 -246 "},"Ç":{"x_min":69.421875,"x_max":722.75,"ha":797,"o":"m 722 334 l 635 334 l 635 268 b 417 86 635 130 616 86 b 164 338 193 86 164 116 l 164 666 b 417 919 164 888 193 919 b 635 747 585 919 635 904 l 635 681 l 722 681 l 722 754 b 417 1016 722 987 635 1016 b 69 672 157 1016 69 966 l 69 333 b 377 -9 69 55 148 -4 l 302 -115 l 323 -133 b 382 -122 341 -126 362 -122 b 450 -177 415 -122 450 -137 b 359 -241 450 -226 400 -241 b 272 -220 329 -241 299 -233 l 251 -261 b 375 -288 291 -277 333 -288 b 529 -174 446 -288 529 -258 b 417 -74 529 -109 477 -74 b 372 -83 402 -74 387 -80 l 428 -11 b 722 258 658 -9 722 44 l 722 334 "},"’":{"x_min":66.6875,"x_max":161.96875,"ha":233,"o":"m 161 1005 l 66 1005 l 66 877 l 107 877 b 66 783 107 793 95 783 l 66 727 b 161 854 127 727 161 736 l 161 1005 "},"-":{"x_min":51.71875,"x_max":351.171875,"ha":411,"o":"m 51 327 l 351 327 l 351 408 l 51 408 l 51 327 "},"Q":{"x_min":68.875,"x_max":818.859375,"ha":850,"o":"m 164 666 b 415 919 164 904 180 919 b 667 666 651 919 667 904 l 667 338 b 663 236 667 297 667 262 l 454 416 l 402 354 l 644 144 b 415 86 618 91 556 86 b 164 338 180 86 164 101 l 164 666 m 68 333 b 415 -11 68 38 143 -11 b 718 81 579 -11 671 6 l 767 38 l 818 102 l 748 163 b 763 333 758 209 763 265 l 763 672 b 415 1016 763 966 688 1016 b 68 672 143 1016 68 966 l 68 333 "},"M":{"x_min":83.03125,"x_max":1000.421875,"ha":1106,"o":"m 83 0 l 178 0 l 178 900 l 181 900 l 490 0 l 593 0 l 902 900 l 905 900 l 905 0 l 1000 0 l 1000 1005 l 841 1005 l 543 118 l 540 118 l 242 1005 l 83 1005 l 83 0 "},"C":{"x_min":69.421875,"x_max":722.75,"ha":797,"o":"m 722 334 l 635 334 l 635 268 b 417 86 635 130 616 86 b 164 338 193 86 164 116 l 164 666 b 417 919 164 888 193 919 b 635 747 585 919 635 904 l 635 681 l 722 681 l 722 754 b 417 1016 722 987 635 1016 b 69 672 157 1016 69 966 l 69 333 b 417 -11 69 38 157 -11 b 722 258 656 -11 722 40 l 722 334 "},"œ":{"x_min":59.890625,"x_max":960.953125,"ha":1054,"o":"m 147 354 b 313 630 147 609 168 630 b 472 354 450 630 472 609 b 313 78 472 99 450 78 b 147 354 168 78 147 99 m 559 422 b 717 639 559 572 562 639 b 873 422 871 639 873 572 l 559 422 m 960 333 l 960 440 b 718 719 960 633 926 719 b 517 641 624 719 555 712 b 315 719 481 707 415 719 b 59 354 81 719 59 647 b 315 -10 59 61 81 -10 b 511 68 406 -10 480 0 b 718 -10 558 0 617 -10 b 960 185 926 -10 960 43 l 960 211 l 873 211 b 705 70 873 72 843 70 b 559 268 585 70 559 114 l 559 333 l 960 333 "},"!":{"x_min":103.4375,"x_max":198.71875,"ha":308,"o":"m 103 272 l 198 272 l 198 1005 l 103 1005 l 103 272 m 103 0 l 198 0 l 198 127 l 103 127 l 103 0 "},"ç":{"x_min":59.890625,"x_max":555.328125,"ha":617,"o":"m 543 472 b 315 719 543 659 503 719 b 59 354 106 719 59 647 b 288 -9 59 79 84 -4 l 213 -115 l 235 -133 b 294 -122 253 -126 273 -122 b 362 -177 326 -122 362 -137 b 270 -241 362 -226 311 -241 b 183 -220 240 -241 210 -233 l 163 -261 b 287 -288 202 -277 245 -288 b 441 -174 357 -288 441 -258 b 329 -74 441 -109 389 -74 b 284 -83 314 -74 299 -80 l 340 -9 b 555 211 480 -6 555 37 l 555 256 l 468 256 b 315 69 468 104 441 69 b 155 354 176 69 155 90 b 315 638 155 618 176 638 b 455 472 431 638 455 601 l 543 472 "},"È":{"x_min":83.03125,"x_max":611.140625,"ha":694,"o":"m 83 0 l 608 0 l 608 97 l 178 97 l 178 472 l 589 472 l 589 569 l 178 569 l 178 908 l 611 908 l 611 1005 l 83 1005 l 83 0 m 356 1051 l 426 1051 l 274 1244 l 168 1244 l 356 1051 "},"ﬁ":{"x_min":34.03125,"x_max":559.421875,"ha":668,"o":"m 119 0 l 206 0 l 206 627 l 359 627 l 359 708 l 206 708 l 206 836 b 304 936 206 916 247 936 b 362 934 323 936 343 936 l 362 1013 b 300 1016 341 1015 321 1016 b 119 836 179 1016 119 966 l 119 708 l 34 708 l 34 627 l 119 627 l 119 0 m 472 0 l 559 0 l 559 708 l 472 708 l 472 0 m 472 887 l 559 887 l 559 1005 l 472 1005 l 472 887 "},"{":{"x_min":19.0625,"x_max":321.21875,"ha":411,"o":"m 321 1005 l 246 1005 b 119 870 171 1005 119 954 l 119 708 b 19 547 119 609 91 547 l 19 458 b 119 295 91 458 119 394 l 119 134 b 246 0 119 51 171 0 l 321 0 l 321 72 l 264 72 b 206 176 224 72 206 123 l 206 334 b 106 501 208 448 127 494 l 106 504 b 206 669 127 509 208 556 l 206 829 b 264 933 206 883 224 933 l 321 933 l 321 1005 "},"X":{"x_min":26,"x_max":756,"ha":797,"o":"m 26 0 l 136 0 l 391 452 l 645 0 l 756 0 l 457 511 l 738 1005 l 630 1005 l 391 575 l 151 1005 l 43 1005 l 321 511 l 26 0 "},"ô":{"x_min":59.828125,"x_max":571.171875,"ha":644,"o":"m 155 354 b 315 638 155 618 176 638 b 475 354 454 638 475 618 b 315 69 475 90 454 69 b 155 354 176 69 155 90 m 59 354 b 315 -11 59 61 89 -11 b 571 354 541 -11 571 61 b 315 719 571 636 543 719 b 59 354 87 719 59 636 m 115 788 l 202 788 l 315 926 l 426 788 l 515 788 l 361 982 l 269 982 l 115 788 "},"¼":{"x_min":30.40625,"x_max":1105.640625,"ha":1158,"o":"m 961 198 l 715 198 l 958 543 l 961 543 l 961 198 m 644 126 l 961 126 l 961 0 l 1040 0 l 1040 126 l 1105 126 l 1105 198 l 1040 198 l 1040 598 l 913 598 l 644 218 l 644 126 m 216 -11 l 295 -11 l 898 1016 l 819 1016 l 216 -11 m 205 406 l 293 406 l 293 1005 l 177 1005 l 30 827 l 82 790 l 203 941 l 205 941 l 205 406 "},"#":{"x_min":32.9375,"x_max":724.0625,"ha":772,"o":"m 292 612 l 491 612 l 461 393 l 262 393 l 292 612 m 133 0 l 211 0 l 253 320 l 451 320 l 407 0 l 484 0 l 529 320 l 684 320 l 684 393 l 539 393 l 568 612 l 724 612 l 724 684 l 578 684 l 623 1005 l 545 1005 l 500 684 l 302 684 l 349 1005 l 272 1005 l 227 684 l 72 684 l 72 612 l 217 612 l 188 393 l 32 393 l 32 320 l 178 320 l 133 0 "},"Ê":{"x_min":82.828125,"x_max":610.9375,"ha":694,"o":"m 82 0 l 608 0 l 608 96 l 178 96 l 178 471 l 589 471 l 589 569 l 178 569 l 178 907 l 610 907 l 610 1005 l 82 1005 l 82 0 m 140 1050 l 227 1050 l 340 1188 l 451 1050 l 540 1050 l 386 1244 l 293 1244 l 140 1050 "},")":{"x_min":66.6875,"x_max":283.109375,"ha":411,"o":"m 66 -11 b 283 311 225 -11 283 50 l 283 694 b 66 1016 283 955 225 1016 l 66 927 b 196 784 168 927 194 876 l 196 220 b 66 77 194 129 168 77 l 66 -11 "},"Å":{"x_min":14.96875,"x_max":766.3125,"ha":797,"o":"m 573 309 l 208 309 l 383 908 l 397 908 l 573 309 m 666 0 l 766 0 l 457 1005 l 323 1005 l 14 0 l 114 0 l 178 212 l 602 212 l 666 0 m 254 1188 b 390 1050 254 1112 315 1050 b 526 1188 465 1050 526 1112 b 390 1327 526 1265 465 1327 b 254 1188 315 1327 254 1265 m 308 1188 b 390 1272 308 1234 345 1272 b 472 1188 435 1272 472 1234 b 390 1105 472 1143 435 1105 b 308 1188 345 1105 308 1143 "},"ø":{"x_min":50.34375,"x_max":580.671875,"ha":644,"o":"m 167 162 b 155 354 157 203 155 264 b 315 639 155 618 176 639 b 433 611 373 639 412 635 l 167 162 m 102 -62 l 151 19 b 315 -10 187 -2 240 -10 b 571 354 541 -10 571 61 b 524 648 571 503 562 596 l 580 742 l 528 771 l 480 687 b 315 719 440 711 388 719 b 59 354 87 719 59 636 b 104 58 59 205 68 112 l 50 -33 l 102 -62 m 463 546 b 475 354 473 505 475 444 b 315 69 475 90 454 69 b 197 97 258 69 221 73 l 463 546 "},"â":{"x_min":59.921875,"x_max":558.046875,"ha":643,"o":"m 479 0 l 558 0 l 558 518 b 321 719 558 655 514 719 b 84 550 104 719 84 636 l 84 512 l 171 512 b 317 638 171 602 174 638 b 470 498 461 638 470 602 l 470 369 l 468 369 b 276 433 436 418 408 433 b 59 211 91 433 59 350 b 276 -11 59 75 99 -11 b 479 61 378 -11 428 5 l 479 0 m 147 215 b 313 352 147 323 197 352 b 479 215 428 352 479 323 b 313 77 479 107 428 77 b 147 215 197 77 147 107 m 115 788 l 202 788 l 315 926 l 427 788 l 515 788 l 362 982 l 269 982 l 115 788 "},"}":{"x_min":81.671875,"x_max":383.828125,"ha":411,"o":"m 81 0 l 156 0 b 283 134 231 0 283 51 l 283 297 b 383 458 283 395 311 458 l 383 547 b 283 709 311 547 283 611 l 283 870 b 156 1005 283 954 231 1005 l 81 1005 l 81 933 l 138 933 b 196 829 178 933 196 881 l 196 670 b 296 504 194 556 274 511 l 296 501 b 196 336 274 495 194 448 l 196 176 b 138 72 196 122 178 72 l 81 72 l 81 0 "},"‰":{"x_min":34.03125,"x_max":1328.453125,"ha":1390,"o":"m 1072 373 b 1161 529 1072 477 1075 527 b 1249 373 1246 527 1249 477 l 1249 223 b 1161 69 1249 119 1246 69 b 1072 223 1075 69 1072 119 l 1072 373 m 130 -11 l 209 -11 l 812 1016 l 733 1016 l 130 -11 m 112 780 b 201 936 112 884 115 934 b 289 780 287 934 289 884 l 289 630 b 201 476 289 526 287 476 b 112 630 115 476 112 526 l 112 780 m 993 208 b 1161 -11 993 44 1024 -11 b 1328 208 1297 -11 1328 44 l 1328 390 b 1161 609 1328 554 1297 609 b 993 390 1024 609 993 554 l 993 208 m 34 615 b 201 395 34 451 65 395 b 368 615 337 395 368 451 l 368 797 b 201 1016 368 961 337 1016 b 34 797 65 1016 34 961 l 34 615 m 575 208 b 743 -11 575 44 607 -11 b 910 208 879 -11 910 44 l 910 390 b 743 609 910 554 879 609 b 575 390 607 609 575 554 l 575 208 m 654 373 b 743 529 654 477 657 527 b 831 373 828 527 831 477 l 831 223 b 743 69 831 119 828 69 b 654 223 657 69 654 119 l 654 373 "},"Ä":{"x_min":14.96875,"x_max":766.3125,"ha":797,"o":"m 573 309 l 208 309 l 383 908 l 397 908 l 573 309 m 666 0 l 766 0 l 457 1005 l 323 1005 l 14 0 l 114 0 l 178 212 l 602 212 l 666 0 m 239 1068 l 326 1068 l 326 1186 l 239 1186 l 239 1068 m 454 1068 l 541 1068 l 541 1186 l 454 1186 l 454 1068 "},"¸":{"x_min":0,"x_max":277.671875,"ha":283,"o":"m 50 -115 l 72 -133 b 130 -122 89 -126 110 -122 b 198 -177 163 -122 198 -137 b 107 -241 198 -226 148 -241 b 20 -220 77 -241 47 -233 l 0 -261 b 123 -288 39 -277 81 -288 b 277 -174 194 -288 277 -258 b 166 -74 277 -109 225 -74 b 121 -83 151 -74 136 -80 l 185 0 l 132 0 l 50 -115 "},"a":{"x_min":59.890625,"x_max":558.0625,"ha":643,"o":"m 479 0 l 558 0 l 558 518 b 321 719 558 655 514 719 b 84 550 104 719 84 636 l 84 512 l 171 512 b 317 638 171 602 174 638 b 470 498 461 638 470 602 l 470 369 l 468 369 b 276 433 436 418 408 433 b 59 211 91 433 59 350 b 276 -11 59 75 99 -11 b 479 61 378 -11 428 5 l 479 0 m 147 215 b 313 352 147 323 197 352 b 479 215 428 352 479 323 b 313 77 479 106 428 77 b 147 215 197 77 147 106 "},"—":{"x_min":0,"x_max":1361.109375,"ha":1389,"o":"m 0 327 l 1361 327 l 1361 408 l 0 408 l 0 327 "},"=":{"x_min":63.96875,"x_max":752.703125,"ha":833,"o":"m 63 448 l 752 448 l 752 529 l 63 529 l 63 448 m 63 173 l 752 173 l 752 254 l 63 254 l 63 173 "},"N":{"x_min":83.03125,"x_max":774.46875,"ha":875,"o":"m 83 0 l 178 0 l 178 900 l 181 900 l 623 0 l 774 0 l 774 1005 l 679 1005 l 679 105 l 676 105 l 234 1005 l 83 1005 l 83 0 "},"˚":{"x_min":2.71875,"x_max":274.9375,"ha":283,"o":"m 2 926 b 138 787 2 850 63 787 b 274 926 213 787 274 850 b 138 1065 274 1002 213 1065 b 2 926 63 1065 2 1002 m 57 926 b 138 1009 57 972 93 1009 b 220 926 183 1009 220 972 b 138 843 220 880 183 843 b 57 926 93 843 57 880 "},"ú":{"x_min":72.171875,"x_max":558.09375,"ha":643,"o":"m 558 708 l 470 708 l 470 261 b 291 69 470 111 397 69 b 159 229 176 69 159 147 l 159 708 l 72 708 l 72 208 b 276 -11 72 70 115 -11 b 468 91 377 -11 424 15 l 470 91 l 470 0 l 558 0 l 558 708 m 230 788 l 299 788 l 487 981 l 381 981 l 230 788 "},"⁄":{"x_min":-227,"x_max":455,"ha":232,"o":"m -227 -11 l -148 -11 l 455 1016 l 376 1016 l -227 -11 "},"2":{"x_min":73.5,"x_max":683.28125,"ha":772,"o":"m 73 0 l 676 0 l 676 97 l 168 97 l 168 198 b 401 379 168 316 189 365 b 683 722 664 395 683 502 b 382 1016 683 968 609 1016 b 78 743 93 1016 78 911 l 78 683 l 166 683 l 166 731 b 378 919 166 891 186 919 b 588 720 564 919 588 881 b 382 476 588 515 564 494 b 73 177 138 452 73 408 l 73 0 "},"ü":{"x_min":72.140625,"x_max":558.0625,"ha":643,"o":"m 558 708 l 470 708 l 470 261 b 291 69 470 111 397 69 b 159 229 176 69 159 147 l 159 708 l 72 708 l 72 208 b 276 -11 72 70 115 -11 b 468 91 377 -11 424 15 l 470 91 l 470 0 l 558 0 l 558 708 m 164 805 l 251 805 l 251 923 l 164 923 l 164 805 m 379 805 l 466 805 l 466 923 l 379 923 l 379 805 "},"¯":{"x_min":-61.25,"x_max":338.921875,"ha":283,"o":"m -61 841 l 338 841 l 338 905 l -61 905 l -61 841 "},"Z":{"x_min":35,"x_max":672,"ha":722,"o":"m 35 0 l 672 0 l 672 97 l 143 97 l 665 908 l 665 1005 l 54 1005 l 54 908 l 556 908 l 35 97 l 35 0 "},"u":{"x_min":72.140625,"x_max":558.0625,"ha":643,"o":"m 558 708 l 470 708 l 470 261 b 291 69 470 111 397 69 b 159 229 176 69 159 147 l 159 708 l 72 708 l 72 208 b 276 -11 72 70 115 -11 b 468 91 377 -11 424 15 l 470 91 l 470 0 l 558 0 l 558 708 "},"˜":{"x_min":-73,"x_max":351.671875,"ha":283,"o":"m 297 947 b 237 877 291 912 275 877 b 147 909 212 877 180 893 b 46 940 114 926 80 940 b -73 805 -22 940 -67 870 l -18 805 b 41 876 -13 841 3 876 b 131 845 67 876 98 862 b 231 813 163 829 199 813 b 351 947 301 813 346 883 l 297 947 "},"Ó":{"x_min":69.421875,"x_max":763.578125,"ha":850,"o":"m 668 338 b 416 86 668 116 639 86 b 164 338 193 86 164 116 l 164 666 b 416 919 164 888 193 919 b 668 666 639 919 668 888 l 668 338 m 69 333 b 416 -11 69 38 157 -11 b 763 333 675 -11 763 38 l 763 672 b 416 1016 763 966 675 1016 b 69 672 157 1016 69 966 l 69 333 m 330 1051 l 400 1051 l 588 1244 l 481 1244 l 330 1051 "},"k":{"x_min":72.140625,"x_max":549.890625,"ha":540,"o":"m 434 0 l 549 0 l 269 380 l 513 708 l 405 708 l 200 422 l 159 422 l 159 1005 l 72 1005 l 72 0 l 159 0 l 159 333 l 197 333 l 434 0 "},"ˇ":{"x_min":-61.171875,"x_max":339,"ha":283,"o":"m 92 788 l 185 788 l 339 982 l 250 982 l 138 844 l 25 982 l -61 982 l 92 788 "},"Ù":{"x_min":83.03125,"x_max":725.46875,"ha":825,"o":"m 83 256 b 402 -11 83 41 172 -11 b 725 256 637 -11 725 41 l 725 1005 l 630 1005 l 630 227 b 402 86 630 119 579 86 b 178 227 228 86 178 119 l 178 1005 l 83 1005 l 83 256 m 420 1051 l 490 1051 l 338 1244 l 232 1244 l 420 1051 "},"Ÿ":{"x_min":-1.359375,"x_max":709.140625,"ha":722,"o":"m 306 0 l 401 0 l 401 418 l 709 1005 l 609 1005 l 353 516 l 98 1005 l -1 1005 l 306 418 l 306 0 m 202 1068 l 289 1068 l 289 1186 l 202 1186 l 202 1068 m 417 1068 l 504 1068 l 504 1186 l 417 1186 l 417 1068 "},"€":{"x_min":24.5,"x_max":725.46875,"ha":772,"o":"m 130 379 l 130 333 b 449 -11 130 54 201 -11 b 690 55 607 -11 669 33 l 690 180 b 449 81 649 120 589 81 b 225 338 246 81 225 123 l 225 379 l 551 379 l 575 451 l 225 451 l 225 561 l 613 561 l 638 633 l 225 633 l 225 666 b 449 923 225 881 246 923 b 690 788 588 923 639 886 l 725 894 b 449 1016 688 955 620 1016 b 130 672 201 1016 130 951 l 130 633 l 54 633 l 29 561 l 130 561 l 130 451 l 49 451 l 24 379 l 130 379 "},"¢":{"x_min":130.75,"x_max":626.203125,"ha":772,"o":"m 287 93 b 226 354 235 116 226 182 b 386 630 226 609 247 630 b 426 629 401 630 413 630 l 287 93 m 220 -165 l 284 -165 l 325 -8 b 386 -11 341 -9 363 -11 b 626 211 541 -11 626 20 l 626 257 l 539 257 b 386 77 539 112 511 77 b 348 79 373 77 359 77 l 484 614 b 535 472 525 591 535 548 l 613 472 b 507 704 613 609 592 679 l 551 873 l 488 873 l 447 716 b 386 719 428 718 408 719 b 130 354 152 719 130 647 b 264 1 130 123 144 29 l 220 -165 "},"Ω":{"x_min":69.421875,"x_max":911.953125,"ha":1001,"o":"m 276 77 l 69 77 l 69 0 l 392 0 l 392 58 b 181 516 285 129 181 304 b 494 926 181 744 302 926 b 800 519 696 926 800 706 b 589 58 800 293 696 131 l 589 0 l 911 0 l 911 77 l 703 77 l 703 81 b 892 536 797 163 892 326 b 495 1005 892 787 736 1005 b 88 530 265 1005 88 813 b 276 81 88 329 176 173 l 276 77 "},"ß":{"x_min":72.140625,"x_max":558.0625,"ha":643,"o":"m 240 501 b 462 280 406 495 462 475 b 330 77 462 158 438 77 b 236 108 299 77 258 90 l 236 8 b 333 -11 265 -6 298 -11 b 558 291 484 -11 558 88 b 387 552 558 469 504 533 l 387 555 b 507 768 481 583 507 663 b 294 1016 507 888 483 1016 b 72 786 167 1016 72 977 l 72 0 l 159 0 l 159 800 b 288 927 159 893 204 927 b 420 773 366 927 420 884 b 240 581 420 638 366 581 l 240 501 "},"é":{"x_min":59.921875,"x_max":558.09375,"ha":643,"o":"m 155 422 b 313 638 155 572 157 638 b 470 422 468 638 470 572 l 155 422 m 558 333 l 558 440 b 315 719 558 633 524 719 b 59 354 106 719 59 647 b 315 -11 59 66 87 -11 b 558 184 524 -11 558 43 l 558 211 l 470 211 b 300 69 470 72 441 69 b 155 268 181 69 155 113 l 155 333 l 558 333 m 230 788 l 299 788 l 487 981 l 381 981 l 230 788 "},"s":{"x_min":70.78125,"x_max":559.421875,"ha":643,"o":"m 70 219 b 303 -11 70 8 144 -11 b 559 215 528 -11 559 48 b 322 400 559 370 528 387 b 163 516 175 408 163 416 b 306 638 163 626 185 638 b 465 523 436 638 465 631 l 552 523 b 310 719 552 672 513 719 b 76 512 103 719 76 661 b 298 319 76 355 123 329 b 472 209 462 309 472 302 b 306 69 472 90 446 69 b 157 219 176 69 155 97 l 70 219 "},"B":{"x_min":83.03125,"x_max":711.859375,"ha":797,"o":"m 178 472 l 450 472 b 616 284 597 472 616 427 b 450 97 616 141 597 97 l 178 97 l 178 472 m 178 908 l 473 908 b 597 738 594 908 597 840 b 468 569 597 636 577 569 l 178 569 l 178 908 m 83 0 l 470 0 b 711 263 658 0 711 83 b 590 529 711 427 698 502 l 590 531 b 692 766 681 570 692 640 b 470 1005 692 929 654 1005 l 83 1005 l 83 0 "},"…":{"x_min":179.671875,"x_max":1181.453125,"ha":1389,"o":"m 179 0 l 274 0 l 274 127 l 179 127 l 179 0 m 632 0 l 728 0 l 728 127 l 632 127 l 632 0 m 1086 0 l 1181 0 l 1181 127 l 1086 127 l 1086 0 "},"?":{"x_min":34.03125,"x_max":545.8125,"ha":592,"o":"m 34 695 l 121 695 b 294 919 121 909 137 919 b 458 761 454 919 458 877 b 381 544 458 583 445 573 b 193 330 205 465 193 450 l 193 272 l 288 272 l 288 341 b 404 451 288 398 298 406 b 545 763 509 495 545 520 b 289 1016 545 930 517 1016 b 34 801 161 1016 34 1006 l 34 695 m 193 0 l 288 0 l 288 127 l 193 127 l 193 0 "},"H":{"x_min":83.03125,"x_max":748.609375,"ha":849,"o":"m 83 0 l 178 0 l 178 463 l 653 463 l 653 0 l 748 0 l 748 1005 l 651 1005 l 651 569 l 178 569 l 178 1005 l 83 1005 l 83 0 "},"î":{"x_min":-61.25,"x_max":338.921875,"ha":283,"o":"m 95 0 l 182 0 l 182 708 l 95 708 l 95 0 m -61 788 l 25 788 l 138 926 l 250 788 l 338 788 l 185 982 l 92 982 l -61 788 "},"c":{"x_min":59.890625,"x_max":555.328125,"ha":617,"o":"m 543 472 b 315 719 543 659 503 719 b 59 354 106 719 59 647 b 315 -11 59 66 87 -11 b 555 211 470 -11 555 27 l 555 256 l 468 256 b 315 69 468 104 441 69 b 155 354 176 69 155 90 b 315 638 155 618 176 638 b 455 472 431 638 455 601 l 543 472 "},"¶":{"x_min":106.171875,"x_max":650.609375,"ha":833,"o":"m 351 0 l 430 0 l 430 933 l 571 933 l 571 0 l 650 0 l 650 1005 l 355 1005 b 106 772 200 1005 106 930 b 351 554 106 650 204 554 l 351 0 "},"−":{"x_min":63.96875,"x_max":752.703125,"ha":833,"o":"m 63 311 l 752 311 l 752 391 l 63 391 l 63 311 "},"≠":{"x_min":70.953125,"x_max":701.046875,"ha":789,"o":"m 545 708 l 495 731 l 423 569 l 70 569 l 70 505 l 397 505 l 305 298 l 70 298 l 70 236 l 279 236 l 213 94 l 264 70 l 337 236 l 701 236 l 701 298 l 363 298 l 457 505 l 701 505 l 701 569 l 481 569 l 545 708 "},"•":{"x_min":93.921875,"x_max":586.640625,"ha":694,"o":"m 93 502 b 340 251 93 363 204 251 b 586 502 476 251 586 363 b 340 754 586 641 476 754 b 93 502 204 754 93 641 "},"¥":{"x_min":27.21875,"x_max":729.5625,"ha":772,"o":"m 334 0 l 421 0 l 421 229 l 668 229 l 668 301 l 421 301 l 421 418 l 427 429 l 668 429 l 668 501 l 465 501 l 729 1005 l 634 1005 l 378 516 l 122 1005 l 27 1005 l 295 501 l 88 501 l 88 429 l 329 429 l 334 418 l 334 301 l 88 301 l 88 229 l 334 229 l 334 0 "},"(":{"x_min":119.78125,"x_max":336.1875,"ha":411,"o":"m 336 1016 b 119 694 176 1016 119 955 l 119 311 b 336 -11 119 50 176 -11 l 336 77 b 206 220 234 77 208 129 l 206 784 b 336 927 208 876 234 927 l 336 1016 "},"U":{"x_min":83.03125,"x_max":725.46875,"ha":825,"o":"m 83 256 b 402 -11 83 41 172 -11 b 725 256 637 -11 725 41 l 725 1005 l 630 1005 l 630 227 b 402 86 630 119 579 86 b 178 227 228 86 178 119 l 178 1005 l 83 1005 l 83 256 "},"◊":{"x_min":76,"x_max":702,"ha":793,"o":"m 702 494 l 427 1052 l 352 1052 l 76 494 l 349 -62 l 424 -62 l 702 494 m 616 491 l 416 87 b 391 16 406 68 395 34 l 386 16 b 361 88 383 34 374 59 l 160 497 l 359 897 b 386 970 371 923 379 950 l 389 970 b 414 897 394 951 405 920 l 616 491 "},"Ñ":{"x_min":82.609375,"x_max":774.0625,"ha":875,"o":"m 82 0 l 177 0 l 177 900 l 180 900 l 622 0 l 774 0 l 774 1005 l 678 1005 l 678 105 l 676 105 l 233 1005 l 82 1005 l 82 0 m 586 1209 b 526 1140 580 1175 564 1140 b 436 1172 501 1140 469 1155 b 335 1202 403 1188 369 1202 b 216 1068 266 1202 221 1133 l 270 1068 b 330 1138 275 1104 292 1138 b 420 1108 356 1138 387 1125 b 520 1076 452 1091 488 1076 b 640 1209 590 1076 635 1145 l 586 1209 "},"F":{"x_min":83.03125,"x_max":593.4375,"ha":643,"o":"m 83 0 l 178 0 l 178 458 l 577 458 l 577 555 l 178 555 l 178 908 l 593 908 l 593 1005 l 83 1005 l 83 0 "},"­":{"x_min":51.71875,"x_max":351.171875,"ha":411,"o":"m 51 327 l 351 327 l 351 408 l 51 408 l 51 327 "},":":{"x_min":141.5625,"x_max":236.828125,"ha":386,"o":"m 141 540 l 236 540 l 236 668 l 141 668 l 141 540 m 141 0 l 236 0 l 236 127 l 141 127 l 141 0 "},"Û":{"x_min":83.03125,"x_max":725.46875,"ha":825,"o":"m 83 256 b 402 -11 83 41 172 -11 b 725 256 637 -11 725 41 l 725 1005 l 630 1005 l 630 227 b 402 85 630 119 579 85 b 178 227 228 85 178 119 l 178 1005 l 83 1005 l 83 256 m 204 1050 l 291 1050 l 404 1188 l 515 1050 l 604 1050 l 450 1244 l 357 1244 l 204 1050 "},"*":{"x_min":77.828125,"x_max":551.171875,"ha":642,"o":"m 250 817 l 302 848 l 228 1017 l 169 990 l 250 817 m 169 521 l 228 494 l 302 662 l 250 694 l 169 521 m 400 494 l 459 521 l 378 694 l 326 662 l 400 494 m 326 848 l 378 817 l 459 990 l 400 1017 l 326 848 m 551 723 l 551 787 l 387 787 l 387 723 l 551 723 m 241 723 l 241 787 l 77 787 l 77 723 l 241 723 "},"†":{"x_min":62.609375,"x_max":468.21875,"ha":542,"o":"m 221 0 l 308 0 l 308 638 l 468 638 l 468 719 l 308 719 l 308 1005 l 221 1005 l 221 719 l 62 719 l 62 638 l 221 638 l 221 0 "},"∕":{"x_min":-227,"x_max":455,"ha":232,"o":"m -227 -11 l -148 -11 l 455 1016 l 376 1016 l -227 -11 "},"°":{"x_min":77.578125,"x_max":466.859375,"ha":556,"o":"m 77 818 b 272 619 77 708 164 619 b 466 818 379 619 466 708 b 272 1016 466 927 379 1016 b 77 818 164 1016 77 927 m 140 818 b 272 952 140 893 198 952 b 404 818 345 952 404 893 b 272 683 404 743 345 683 b 140 818 198 683 140 743 "},"V":{"x_min":15.890625,"x_max":740,"ha":772,"o":"m 311 0 l 444 0 l 740 1005 l 643 1005 l 379 97 l 376 97 l 112 1005 l 15 1005 l 311 0 "},"å":{"x_min":59.890625,"x_max":558.0625,"ha":643,"o":"m 479 0 l 558 0 l 558 518 b 321 719 558 655 514 719 b 84 550 104 719 84 636 l 84 512 l 171 512 b 317 638 171 602 174 638 b 470 498 461 638 470 602 l 470 369 l 468 369 b 276 433 436 418 408 433 b 59 211 91 433 59 350 b 276 -11 59 75 99 -11 b 479 61 378 -11 428 5 l 479 0 m 147 215 b 313 352 147 323 197 352 b 479 215 428 352 479 323 b 313 77 479 106 428 77 b 147 215 197 77 147 106 m 179 926 b 315 787 179 850 240 787 b 451 926 390 787 451 850 b 315 1065 451 1002 390 1065 b 179 926 240 1065 179 1002 m 234 926 b 315 1009 234 972 270 1009 b 397 926 360 1009 397 972 b 315 843 397 880 360 843 b 234 926 270 843 234 880 "}," ":{"x_min":0,"x_max":0,"ha":386},"0":{"x_min":65.328125,"x_max":691.453125,"ha":772,"o":"m 691 704 b 378 1016 691 979 604 1016 b 65 704 152 1016 65 979 l 65 301 b 378 -11 65 26 152 -11 b 691 301 604 -11 691 26 l 691 704 m 596 272 b 378 86 596 88 551 86 b 160 272 205 86 160 88 l 160 733 b 378 919 160 916 205 919 b 596 733 551 919 596 916 l 596 272 "},"”":{"x_min":62.609375,"x_max":336.1875,"ha":411,"o":"m 161 1005 l 66 1005 l 66 877 l 107 877 b 62 783 107 793 95 783 l 62 727 b 161 854 127 727 161 736 l 161 1005 m 336 1005 l 240 1005 l 240 877 l 281 877 b 236 783 281 793 269 783 l 236 727 b 336 854 302 727 336 736 l 336 1005 "},"¾":{"x_min":30.359375,"x_max":1105.640625,"ha":1158,"o":"m 193 680 b 363 579 344 680 363 679 b 237 468 363 481 355 468 b 109 598 112 468 109 483 l 30 598 l 30 556 b 245 395 30 425 69 395 b 450 577 438 395 450 437 b 372 711 450 681 421 698 l 372 713 b 448 852 431 730 448 775 b 238 1016 448 970 431 1016 b 43 877 118 1016 43 1006 l 43 826 l 122 826 l 122 858 b 242 944 122 941 163 944 b 361 855 358 944 361 923 b 193 744 361 750 339 744 l 193 680 m 245 -11 l 324 -11 l 927 1016 l 848 1016 l 245 -11 m 961 198 l 715 198 l 958 543 l 961 543 l 961 198 m 644 126 l 961 126 l 961 0 l 1040 0 l 1040 126 l 1105 126 l 1105 198 l 1040 198 l 1040 598 l 913 598 l 644 218 l 644 126 "},"@":{"x_min":40.75,"x_max":1047.96875,"ha":1111,"o":"m 338 413 b 577 731 338 540 438 731 b 694 590 650 731 694 672 b 468 266 694 450 593 266 b 338 413 393 266 338 330 m 740 688 b 582 804 707 777 634 804 b 243 411 381 804 243 597 b 432 194 243 290 322 194 b 621 287 511 194 578 233 l 624 287 b 718 194 634 229 669 194 b 1047 590 860 194 1047 365 b 564 1016 1047 837 830 1016 b 40 506 278 1016 40 790 b 572 -11 40 205 255 -11 b 1019 237 752 -11 930 81 l 937 237 b 572 61 854 126 713 61 b 119 497 307 61 119 254 b 567 944 119 743 311 944 b 969 588 778 944 969 809 b 743 266 969 444 854 266 b 711 301 721 266 711 280 b 725 379 711 322 715 351 l 857 777 l 773 777 l 740 688 "},"ö":{"x_min":59.890625,"x_max":571.671875,"ha":644,"o":"m 155 354 b 315 638 155 618 176 638 b 476 354 454 638 476 618 b 315 69 476 90 454 69 b 155 354 176 69 155 90 m 59 354 b 315 -11 59 61 89 -11 b 571 354 541 -11 571 61 b 315 719 571 636 544 719 b 59 354 87 719 59 636 m 164 805 l 251 805 l 251 923 l 164 923 l 164 805 m 379 805 l 466 805 l 466 923 l 379 923 l 379 805 "},"i":{"x_min":95.28125,"x_max":182.390625,"ha":283,"o":"m 95 0 l 182 0 l 182 708 l 95 708 l 95 0 m 95 887 l 182 887 l 182 1005 l 95 1005 l 95 887 "},"≤":{"x_min":70.78125,"x_max":700.96875,"ha":789,"o":"m 696 137 l 696 213 l 145 487 l 145 490 l 696 761 l 696 837 l 78 520 l 78 454 l 696 137 m 700 13 l 700 79 l 70 79 l 70 13 l 700 13 "},"Õ":{"x_min":69.25,"x_max":763.421875,"ha":850,"o":"m 668 338 b 416 86 668 116 639 86 b 164 338 193 86 164 116 l 164 666 b 416 919 164 888 193 919 b 668 666 639 919 668 888 l 668 338 m 69 333 b 416 -11 69 38 157 -11 b 763 333 674 -11 763 38 l 763 672 b 416 1016 763 966 674 1016 b 69 672 157 1016 69 966 l 69 333 m 574 1209 b 514 1140 568 1175 552 1140 b 424 1172 489 1140 457 1155 b 323 1202 391 1188 357 1202 b 204 1068 254 1202 209 1133 l 258 1068 b 318 1138 263 1104 280 1138 b 408 1108 344 1138 375 1125 b 508 1076 440 1091 476 1076 b 628 1209 578 1076 623 1145 l 574 1209 "},"þ":{"x_min":80.3125,"x_max":594.8125,"ha":668,"o":"m 499 354 b 333 77 499 109 469 77 b 167 395 187 77 167 130 b 333 630 167 569 208 630 b 499 354 469 630 499 598 m 80 -247 l 167 -247 l 167 88 l 170 88 b 348 -11 202 18 250 -11 b 594 354 541 -11 594 76 b 362 719 594 631 541 719 b 170 619 283 719 217 702 l 167 619 l 167 1005 l 80 1005 l 80 -247 "},"]":{"x_min":106.171875,"x_max":283.109375,"ha":411,"o":"m 106 0 l 283 0 l 283 1005 l 106 1005 l 106 916 l 196 916 l 196 88 l 106 88 l 106 0 "},"m":{"x_min":72.140625,"x_max":959.578125,"ha":1053,"o":"m 72 0 l 159 0 l 159 405 b 334 630 159 552 208 630 b 472 490 430 630 472 595 l 472 0 l 559 0 l 559 445 b 726 630 559 584 615 630 b 872 458 815 630 872 600 l 872 0 l 959 0 l 959 509 b 752 719 959 650 892 719 b 544 604 654 719 597 690 b 345 719 509 698 438 719 b 161 602 247 719 205 679 l 159 602 l 159 708 l 72 708 l 72 0 "},"8":{"x_min":65.328125,"x_max":691.453125,"ha":772,"o":"m 160 280 b 378 475 160 454 190 475 b 596 280 567 475 596 454 b 378 86 596 106 567 86 b 160 280 190 86 160 106 m 166 745 b 378 927 166 884 166 927 b 590 745 590 927 590 884 b 378 563 590 606 590 563 b 166 745 166 563 166 606 m 65 269 b 378 -11 65 13 151 -11 b 691 269 605 -11 691 13 b 570 520 691 413 679 483 l 570 523 b 677 747 662 555 677 627 l 677 788 b 378 1016 677 986 607 1016 b 78 788 149 1016 78 986 l 78 747 b 186 523 78 627 93 555 l 186 520 b 65 269 77 483 65 413 "},"ž":{"x_min":30.71875,"x_max":484.0625,"ha":542,"o":"m 30 0 l 478 0 l 478 80 l 126 80 l 484 619 l 484 708 l 66 708 l 66 627 l 388 627 l 30 97 l 30 0 m 218 788 l 311 788 l 465 982 l 376 982 l 264 844 l 151 982 l 64 982 l 218 788 "},"R":{"x_min":83.03125,"x_max":724.109375,"ha":824,"o":"m 83 0 l 178 0 l 178 404 l 426 404 b 612 229 575 404 612 362 l 612 0 l 707 0 l 707 275 b 598 451 707 369 676 429 l 598 454 b 724 720 688 477 724 547 b 485 1005 724 944 658 1005 l 83 1005 l 83 0 m 178 908 l 457 908 b 628 704 604 908 628 893 b 487 501 628 565 586 501 l 178 501 l 178 908 "},"á":{"x_min":59.921875,"x_max":558.09375,"ha":643,"o":"m 479 0 l 558 0 l 558 518 b 321 719 558 655 514 719 b 84 550 104 719 84 636 l 84 512 l 171 512 b 317 638 171 602 174 638 b 470 498 461 638 470 602 l 470 369 l 468 369 b 276 433 436 418 408 433 b 59 211 91 433 59 350 b 276 -11 59 75 99 -11 b 479 61 378 -11 428 5 l 479 0 m 147 215 b 313 352 147 323 197 352 b 479 215 428 352 479 323 b 313 77 479 106 428 77 b 147 215 197 77 147 106 m 230 788 l 299 788 l 487 981 l 381 981 l 230 788 "},"×":{"x_min":117,"x_max":700,"ha":833,"o":"m 700 106 l 457 355 l 700 603 l 652 654 l 408 405 l 164 654 l 117 603 l 359 355 l 117 106 l 164 58 l 408 305 l 652 58 l 700 106 "},"o":{"x_min":59.890625,"x_max":571.671875,"ha":644,"o":"m 155 354 b 315 638 155 618 176 638 b 476 354 454 638 476 618 b 315 69 476 90 454 69 b 155 354 176 69 155 90 m 59 354 b 315 -11 59 61 89 -11 b 571 354 541 -11 571 61 b 315 719 571 636 544 719 b 59 354 87 719 59 636 "},"5":{"x_min":70.78125,"x_max":686,"ha":772,"o":"m 89 502 l 171 502 b 371 591 200 583 245 591 b 590 338 588 591 590 526 b 377 86 590 123 582 86 b 157 287 172 86 157 118 l 70 287 l 70 212 b 368 -11 70 19 202 -11 b 686 338 626 -11 686 34 b 398 688 686 590 649 688 b 187 611 287 688 235 679 l 185 611 l 185 916 l 653 916 l 653 1005 l 89 1005 l 89 502 "},"õ":{"x_min":59.4375,"x_max":571.21875,"ha":644,"o":"m 154 354 b 315 638 154 618 176 638 b 475 354 454 638 475 618 b 315 69 475 90 454 69 b 154 354 176 69 154 90 m 59 354 b 315 -11 59 61 89 -11 b 571 354 541 -11 571 61 b 315 719 571 636 544 719 b 59 354 86 719 59 636 m 473 947 b 413 877 467 912 451 877 b 323 909 388 877 356 893 b 222 940 290 926 256 940 b 103 805 153 940 108 870 l 157 805 b 217 876 162 841 179 876 b 307 845 243 876 274 862 b 407 813 339 829 375 813 b 527 947 477 813 522 883 l 473 947 "},"7":{"x_min":65.328125,"x_max":669.671875,"ha":772,"o":"m 156 0 l 257 0 l 669 858 l 669 1005 l 65 1005 l 65 908 l 590 908 l 156 0 "},"K":{"x_min":83.03125,"x_max":759.5,"ha":746,"o":"m 83 0 l 178 0 l 178 472 l 261 472 l 637 0 l 759 0 l 347 519 l 718 1005 l 600 1005 l 266 569 l 178 569 l 178 1005 l 83 1005 l 83 0 "},",":{"x_min":133.390625,"x_max":236.828125,"ha":386,"o":"m 141 0 l 182 0 b 133 -94 182 -84 170 -94 l 133 -150 b 236 -23 202 -150 236 -141 l 236 127 l 141 127 l 141 0 "},"d":{"x_min":59.890625,"x_max":574.390625,"ha":668,"o":"m 155 354 b 321 630 155 598 185 630 b 487 395 446 630 487 569 b 321 77 487 130 466 77 b 155 354 185 77 155 109 m 487 0 l 574 0 l 574 1005 l 487 1005 l 487 619 l 484 619 b 292 719 436 702 371 719 b 59 354 112 719 59 631 b 306 -11 59 76 112 -11 b 484 88 404 -11 451 18 l 487 88 l 487 0 "},"¨":{"x_min":-12.25,"x_max":289.921875,"ha":283,"o":"m -12 805 l 74 805 l 74 923 l -12 923 l -12 805 m 202 805 l 289 805 l 289 923 l 202 923 l 202 805 "},"Ô":{"x_min":69.421875,"x_max":763.578125,"ha":850,"o":"m 668 338 b 416 85 668 116 639 85 b 164 338 193 85 164 116 l 164 666 b 416 919 164 888 193 919 b 668 666 639 919 668 888 l 668 338 m 69 332 b 416 -11 69 38 157 -11 b 763 332 675 -11 763 38 l 763 671 b 416 1016 763 966 675 1016 b 69 671 157 1016 69 966 l 69 332 m 216 1050 l 303 1050 l 416 1188 l 528 1050 l 616 1050 l 462 1244 l 370 1244 l 216 1050 "},"E":{"x_min":83.03125,"x_max":611.140625,"ha":694,"o":"m 83 0 l 608 0 l 608 97 l 178 97 l 178 472 l 589 472 l 589 569 l 178 569 l 178 908 l 611 908 l 611 1005 l 83 1005 l 83 0 "},"Y":{"x_min":-1.359375,"x_max":709.140625,"ha":722,"o":"m 306 0 l 401 0 l 401 418 l 709 1005 l 609 1005 l 353 516 l 98 1005 l -1 1005 l 306 418 l 306 0 "},"\"":{"x_min":80.3125,"x_max":322.578125,"ha":411,"o":"m 80 727 l 159 727 l 159 1005 l 80 1005 l 80 727 m 243 727 l 322 727 l 322 1005 l 243 1005 l 243 727 "},"‹":{"x_min":79.890625,"x_max":322,"ha":411,"o":"m 209 118 l 305 118 l 179 368 l 322 618 l 224 618 l 79 368 l 209 118 "},"˙":{"x_min":95.28125,"x_max":182.390625,"ha":283,"o":"m 95 805 l 182 805 l 182 923 l 95 923 l 95 805 "},"ê":{"x_min":59.828125,"x_max":558.046875,"ha":643,"o":"m 155 422 b 313 638 155 572 157 638 b 470 422 468 638 470 572 l 155 422 m 558 333 l 558 440 b 315 719 558 633 524 719 b 59 354 106 719 59 647 b 315 -11 59 66 87 -11 b 558 184 524 -11 558 43 l 558 211 l 470 211 b 300 69 470 72 440 69 b 155 268 180 69 155 113 l 155 333 l 558 333 m 115 788 l 202 788 l 315 926 l 427 788 l 515 788 l 362 982 l 269 982 l 115 788 "},"Ï":{"x_min":0,"x_max":302.171875,"ha":308,"o":"m 103 0 l 198 0 l 198 1005 l 103 1005 l 103 0 m 0 1068 l 87 1068 l 87 1186 l 0 1186 l 0 1068 m 215 1068 l 302 1068 l 302 1186 l 215 1186 l 215 1068 "},"„":{"x_min":66.6875,"x_max":336.1875,"ha":411,"o":"m 161 127 l 66 127 l 66 0 l 107 0 b 66 -94 107 -84 95 -94 l 66 -150 b 161 -23 127 -150 161 -141 l 161 127 m 336 127 l 240 127 l 240 0 l 281 0 b 240 -94 281 -84 269 -94 l 240 -150 b 336 -23 302 -150 336 -141 l 336 127 "},"Â":{"x_min":15,"x_max":766,"ha":797,"o":"m 572 309 l 208 309 l 383 907 l 397 907 l 572 309 m 666 0 l 766 0 l 457 1005 l 323 1005 l 15 0 l 114 0 l 178 212 l 602 212 l 666 0 m 190 1050 l 277 1050 l 390 1188 l 502 1050 l 590 1050 l 436 1244 l 344 1244 l 190 1050 "},"Í":{"x_min":65.328125,"x_max":322.578125,"ha":308,"o":"m 103 0 l 198 0 l 198 1005 l 103 1005 l 103 0 m 65 1051 l 134 1051 l 322 1244 l 216 1244 l 65 1051 "},"´":{"x_min":53,"x_max":310,"ha":283,"o":"m 53 788 l 122 788 l 310 981 l 203 981 l 53 788 "},"ì":{"x_min":-32.671875,"x_max":224.578125,"ha":283,"o":"m 95 0 l 182 0 l 182 708 l 95 708 l 95 0 m 155 788 l 224 788 l 73 981 l -32 981 l 155 788 "},"±":{"x_min":63.96875,"x_max":752.703125,"ha":833,"o":"m 368 458 l 63 458 l 63 377 l 368 377 l 368 133 l 447 133 l 447 377 l 752 377 l 752 458 l 447 458 l 447 702 l 368 702 l 368 458 m 63 0 l 752 0 l 752 80 l 63 80 l 63 0 "},"Ú":{"x_min":83.03125,"x_max":725.46875,"ha":825,"o":"m 83 256 b 402 -11 83 41 172 -11 b 725 256 637 -11 725 41 l 725 1005 l 630 1005 l 630 227 b 402 86 630 119 579 86 b 178 227 228 86 178 119 l 178 1005 l 83 1005 l 83 256 m 318 1051 l 387 1051 l 575 1244 l 469 1244 l 318 1051 "},"|":{"x_min":111.609375,"x_max":190.5625,"ha":308,"o":"m 111 -11 l 190 -11 l 190 1016 l 111 1016 l 111 -11 "},"§":{"x_min":82.3125,"x_max":624.6875,"ha":721,"o":"m 120 166 b 360 -11 120 27 178 -11 b 577 165 490 -11 577 22 b 533 280 577 200 567 252 b 624 451 581 329 624 368 b 393 688 624 573 526 631 b 216 837 234 756 216 784 b 344 927 216 922 276 927 b 476 802 446 927 476 909 l 563 802 l 563 834 b 347 1016 563 965 513 1016 b 129 841 226 1016 129 993 b 172 715 129 790 135 761 b 82 547 120 677 82 613 b 294 315 82 441 127 388 b 490 173 465 240 490 223 b 351 77 490 100 460 77 b 207 211 208 77 207 95 l 120 211 l 120 166 m 256 437 b 169 559 188 470 169 504 b 230 668 169 613 197 651 l 409 581 b 537 441 517 530 537 500 b 479 330 537 393 521 370 l 256 437 "},"Ý":{"x_min":-1.359375,"x_max":709.140625,"ha":722,"o":"m 306 0 l 401 0 l 401 418 l 709 1005 l 609 1005 l 353 516 l 98 1005 l -1 1005 l 306 418 l 306 0 m 268 1051 l 337 1051 l 525 1244 l 419 1244 l 268 1051 "},"b":{"x_min":80.3125,"x_max":594.8125,"ha":668,"o":"m 499 354 b 333 77 499 109 469 77 b 167 395 187 77 167 130 b 333 630 167 569 208 630 b 499 354 469 630 499 598 m 80 0 l 167 0 l 167 88 l 170 88 b 348 -11 202 18 250 -11 b 594 354 541 -11 594 76 b 362 719 594 631 541 719 b 170 619 283 719 217 702 l 167 619 l 167 1005 l 80 1005 l 80 0 "},"q":{"x_min":59.890625,"x_max":574.390625,"ha":668,"o":"m 155 354 b 321 630 155 598 185 630 b 487 395 446 630 487 569 b 321 77 487 130 466 77 b 155 354 185 77 155 109 m 487 -247 l 574 -247 l 574 708 l 487 708 l 487 619 l 484 619 b 292 719 436 702 371 719 b 59 354 112 719 59 631 b 306 -11 59 76 112 -11 b 484 88 404 -11 451 18 l 487 88 l 487 -247 "},"Ω":{"x_min":69.421875,"x_max":911.953125,"ha":1001,"o":"m 276 77 l 69 77 l 69 0 l 392 0 l 392 58 b 181 516 285 129 181 304 b 494 926 181 744 302 926 b 800 519 696 926 800 706 b 589 58 800 293 696 131 l 589 0 l 911 0 l 911 77 l 703 77 l 703 81 b 892 536 797 163 892 326 b 495 1005 892 787 736 1005 b 88 530 265 1005 88 813 b 276 81 88 329 176 173 l 276 77 "},"Ö":{"x_min":69.421875,"x_max":763.578125,"ha":850,"o":"m 668 338 b 416 86 668 116 639 86 b 164 338 193 86 164 116 l 164 666 b 416 919 164 888 193 919 b 668 666 639 919 668 888 l 668 338 m 69 333 b 416 -11 69 38 157 -11 b 763 333 675 -11 763 38 l 763 672 b 416 1016 763 966 675 1016 b 69 672 157 1016 69 966 l 69 333 m 265 1068 l 352 1068 l 352 1186 l 265 1186 l 265 1068 m 480 1068 l 567 1068 l 567 1186 l 480 1186 l 480 1068 "},"ﬂ":{"x_min":34.03125,"x_max":559.421875,"ha":668,"o":"m 472 0 l 559 0 l 559 1005 l 472 1005 l 472 0 m 119 0 l 206 0 l 206 627 l 359 627 l 359 708 l 206 708 l 206 836 b 304 936 206 916 247 936 b 362 934 323 936 343 936 l 362 1013 b 300 1016 341 1015 321 1016 b 119 836 179 1016 119 966 l 119 708 l 34 708 l 34 627 l 119 627 l 119 0 "},"z":{"x_min":30.71875,"x_max":483.96875,"ha":542,"o":"m 30 0 l 478 0 l 478 80 l 126 80 l 483 619 l 483 708 l 66 708 l 66 627 l 388 627 l 30 97 l 30 0 "},"™":{"x_min":74.859375,"x_max":1204.578125,"ha":1375,"o":"m 254 433 l 333 433 l 333 933 l 513 933 l 513 1005 l 74 1005 l 74 933 l 254 933 l 254 433 m 1125 433 l 1204 433 l 1204 1005 l 1075 1005 l 906 561 l 732 1005 l 602 1005 l 602 433 l 681 433 l 681 925 l 684 925 l 879 433 l 928 433 l 1122 925 l 1125 925 l 1125 433 "},"ã":{"x_min":60.4375,"x_max":558.609375,"ha":643,"o":"m 479 0 l 558 0 l 558 518 b 321 719 558 655 515 719 b 84 550 105 719 84 636 l 84 512 l 172 512 b 317 638 172 602 174 638 b 471 498 461 638 471 602 l 471 369 l 468 369 b 276 433 437 418 408 433 b 60 211 91 433 60 350 b 276 -11 60 75 99 -11 b 479 61 378 -11 429 5 l 479 0 m 147 215 b 313 352 147 323 197 352 b 479 215 429 352 479 323 b 313 77 479 106 429 77 b 147 215 197 77 147 106 m 474 947 b 414 877 468 912 452 877 b 324 909 389 877 357 893 b 223 940 291 926 257 940 b 104 805 154 940 109 870 l 158 805 b 218 876 163 841 180 876 b 308 845 244 876 275 862 b 408 813 340 829 376 813 b 528 947 478 813 523 883 l 474 947 "},"æ":{"x_min":59.890625,"x_max":960.953125,"ha":1054,"o":"m 59 211 b 276 -10 59 75 99 -10 b 500 84 383 -10 426 -6 b 718 -10 540 4 607 -10 b 960 184 926 -10 960 43 l 960 211 l 873 211 b 703 69 873 72 843 69 b 558 268 583 69 558 114 l 558 333 l 960 333 l 960 440 b 718 719 960 633 926 719 b 514 655 617 719 563 704 b 321 719 476 709 421 719 b 84 550 104 719 84 636 l 84 512 l 171 512 b 317 639 171 602 174 639 b 470 498 461 639 470 602 l 470 369 l 468 369 b 276 433 436 418 408 433 b 59 211 91 433 59 350 m 147 215 b 313 352 147 323 197 352 b 479 215 428 352 479 323 b 313 77 479 107 428 77 b 147 215 197 77 147 107 m 558 422 b 715 639 558 572 560 639 b 873 422 871 639 873 572 l 558 422 "},"®":{"x_min":40.828125,"x_max":1048.0625,"ha":1111,"o":"m 40 502 b 544 -11 40 219 266 -11 b 1048 502 822 -11 1048 219 b 544 1016 1048 786 822 1016 b 40 502 266 1016 40 786 m 111 502 b 544 944 111 747 304 944 b 977 502 784 944 977 747 b 544 61 977 258 784 61 b 111 502 304 61 111 258 m 359 200 l 430 200 l 430 462 l 551 462 l 711 200 l 800 200 l 632 463 b 778 636 707 477 778 523 b 581 805 778 748 713 805 l 359 805 l 359 200 m 430 733 l 570 733 b 707 638 641 733 707 713 b 540 534 707 538 623 534 l 430 534 l 430 733 "},"É":{"x_min":83.03125,"x_max":611.140625,"ha":694,"o":"m 83 0 l 608 0 l 608 97 l 178 97 l 178 472 l 589 472 l 589 569 l 178 569 l 178 908 l 611 908 l 611 1005 l 83 1005 l 83 0 m 254 1051 l 323 1051 l 511 1244 l 405 1244 l 254 1051 "},"~":{"x_min":94.171875,"x_max":723,"ha":833,"o":"m 143 258 b 257 358 164 306 197 358 b 412 311 325 358 370 334 b 552 263 454 287 495 263 b 723 383 637 263 682 325 l 674 444 b 554 344 642 395 608 344 b 420 391 520 344 472 368 b 264 438 369 415 314 438 b 94 319 173 438 124 377 l 143 258 "},"³":{"x_min":35.390625,"x_max":455.96875,"ha":501,"o":"m 198 680 b 368 579 349 680 368 679 b 242 468 368 481 360 468 b 114 598 117 468 114 483 l 35 598 l 35 556 b 250 395 35 425 74 395 b 455 577 443 395 455 437 b 377 711 455 681 426 698 l 377 713 b 453 852 436 730 453 775 b 243 1016 453 970 436 1016 b 49 877 123 1016 49 1006 l 49 826 l 127 826 l 127 858 b 247 944 127 941 168 944 b 366 855 363 944 366 923 b 198 744 366 750 344 744 l 198 680 "},"¡":{"x_min":103.4375,"x_max":198.71875,"ha":308,"o":"m 103 -236 l 198 -236 l 198 497 l 103 497 l 103 -236 m 103 641 l 198 641 l 198 769 l 103 769 l 103 641 "},"[":{"x_min":119.78125,"x_max":296.71875,"ha":411,"o":"m 119 0 l 296 0 l 296 88 l 206 88 l 206 916 l 296 916 l 296 1005 l 119 1005 l 119 0 "},"L":{"x_min":83.03125,"x_max":593.4375,"ha":643,"o":"m 83 0 l 593 0 l 593 105 l 178 105 l 178 1005 l 83 1005 l 83 0 "}," ":{"x_min":0,"x_max":0,"ha":386},"∑":{"x_min":30.765625,"x_max":722.125,"ha":769,"o":"m 722 -137 l 722 -47 l 149 -47 l 149 -43 l 508 437 l 175 904 l 175 908 l 700 908 l 700 990 l 47 990 l 47 923 l 403 425 l 30 -73 l 30 -137 l 722 -137 "},"%":{"x_min":43.5625,"x_max":1039.890625,"ha":1106,"o":"m 743 359 b 852 540 743 519 748 540 b 960 359 955 540 960 519 l 960 250 b 852 69 960 90 955 69 b 743 250 748 69 743 90 l 743 359 m 200 -11 l 279 -11 l 882 1016 l 803 1016 l 200 -11 m 122 755 b 231 936 122 915 127 936 b 340 755 334 936 340 915 l 340 645 b 231 465 340 486 334 465 b 122 645 127 465 122 486 l 122 755 m 664 156 b 852 -11 664 51 691 -11 b 1039 156 1012 -11 1039 51 l 1039 452 b 852 620 1039 558 1012 620 b 664 452 691 620 664 558 l 664 156 m 43 552 b 231 384 43 447 70 384 b 419 552 392 384 419 447 l 419 848 b 231 1016 419 954 392 1016 b 43 848 70 1016 43 954 l 43 552 "},"P":{"x_min":83.03125,"x_max":700.96875,"ha":746,"o":"m 178 908 l 469 908 b 605 698 574 908 605 883 b 454 488 605 527 568 488 l 178 488 l 178 908 m 83 0 l 178 0 l 178 391 l 443 391 b 700 698 597 391 700 430 b 496 1005 700 881 665 1005 l 83 1005 l 83 0 "},"∏":{"x_min":35.390625,"x_max":911.953125,"ha":968,"o":"m 911 904 l 911 990 l 35 990 l 35 904 l 186 904 l 186 -136 l 276 -136 l 276 904 l 671 904 l 671 -136 l 760 -136 l 760 904 l 911 904 "},"À":{"x_min":15,"x_max":766,"ha":797,"o":"m 572 309 l 208 309 l 383 908 l 397 908 l 572 309 m 666 0 l 766 0 l 457 1005 l 323 1005 l 15 0 l 114 0 l 178 212 l 602 212 l 666 0 m 406 1051 l 476 1051 l 325 1244 l 219 1244 l 406 1051 "},"_":{"x_min":0,"x_max":680.5625,"ha":694,"o":"m 680 -173 l 680 -104 l 0 -104 l 0 -173 l 680 -173 "},"ñ":{"x_min":71.6875,"x_max":557.609375,"ha":643,"o":"m 71 0 l 158 0 l 158 447 b 338 638 158 597 232 638 b 470 479 452 638 470 561 l 470 0 l 557 0 l 557 500 b 353 719 557 637 514 719 b 161 616 252 719 205 693 l 158 616 l 158 708 l 71 708 l 71 0 m 473 947 b 413 877 467 912 451 877 b 323 909 388 877 356 893 b 222 940 290 926 256 940 b 103 805 153 940 108 870 l 157 805 b 217 876 162 841 179 876 b 307 845 243 876 274 862 b 407 813 339 829 375 813 b 527 947 477 813 522 883 l 473 947 "},"+":{"x_min":63.96875,"x_max":752.703125,"ha":833,"o":"m 63 311 l 368 311 l 368 0 l 447 0 l 447 311 l 752 311 l 752 391 l 447 391 l 447 702 l 368 702 l 368 391 l 63 391 l 63 311 "},"‚":{"x_min":62.609375,"x_max":166.0625,"ha":233,"o":"m 70 0 l 111 0 b 62 -94 111 -84 99 -94 l 62 -150 b 166 -23 132 -150 166 -141 l 166 127 l 70 127 l 70 0 "},"½":{"x_min":29.9375,"x_max":1105.21875,"ha":1158,"o":"m 172 -11 l 251 -11 l 854 1016 l 775 1016 l 172 -11 m 205 406 l 292 406 l 292 1005 l 176 1005 l 29 827 l 81 790 l 202 941 l 205 941 l 205 406 m 692 0 l 1102 0 l 1102 72 l 779 72 l 779 119 b 931 227 779 190 792 219 b 1105 411 1092 237 1105 302 b 903 609 1105 580 1048 609 b 700 445 707 609 700 547 l 700 406 l 771 406 l 771 433 b 895 537 771 520 788 537 b 1018 431 1003 537 1018 515 b 886 300 1018 323 1003 316 b 692 112 735 279 692 250 l 692 0 "},"Æ":{"x_min":-35.390625,"x_max":1090.25,"ha":1183,"o":"m 562 0 l 1087 0 l 1087 97 l 657 97 l 657 472 l 1068 472 l 1068 569 l 657 569 l 657 908 l 1090 908 l 1090 1005 l 469 1005 l -35 0 l 62 0 l 215 302 l 562 302 l 562 0 m 562 400 l 264 400 l 518 908 l 562 908 l 562 400 "},"Ë":{"x_min":83.03125,"x_max":611.140625,"ha":694,"o":"m 83 0 l 608 0 l 608 97 l 178 97 l 178 472 l 589 472 l 589 569 l 178 569 l 178 908 l 611 908 l 611 1005 l 83 1005 l 83 0 m 189 1068 l 276 1068 l 276 1186 l 189 1186 l 189 1068 m 404 1068 l 491 1068 l 491 1186 l 404 1186 l 404 1068 "},"'":{"x_min":74.859375,"x_max":153.8125,"ha":233,"o":"m 74 727 l 153 727 l 153 1005 l 74 1005 l 74 727 "},"Š":{"x_min":59.890625,"x_max":669.671875,"ha":744,"o":"m 59 237 b 366 -11 59 34 140 -11 b 669 271 588 -11 669 34 b 372 560 669 516 616 544 b 166 741 190 573 166 598 b 367 919 166 889 181 919 b 575 755 530 919 575 887 l 575 732 l 662 732 b 367 1016 657 966 607 1016 b 70 741 144 1016 70 985 b 277 475 70 549 110 489 l 378 467 b 574 285 574 450 574 413 b 364 85 574 95 549 85 b 147 256 179 85 147 106 l 147 314 l 59 314 l 59 237 m 318 1050 l 411 1050 l 564 1244 l 476 1244 l 364 1106 l 251 1244 l 164 1244 l 318 1050 "},"ª":{"x_min":31.3125,"x_max":371.578125,"ha":419,"o":"m 311 577 l 371 577 l 371 887 b 209 1016 371 977 343 1016 b 46 918 54 1016 46 965 l 46 891 l 117 891 b 206 952 117 930 118 952 b 300 868 294 952 300 930 l 300 815 l 298 815 b 179 852 284 844 265 852 b 31 702 51 852 31 786 b 179 569 31 619 51 569 b 311 612 246 569 279 579 l 311 577 m 102 716 b 205 788 102 772 134 788 b 306 716 273 788 306 772 b 205 641 306 658 273 641 b 102 716 134 641 102 658 "},"Œ":{"x_min":69.421875,"x_max":1165.109375,"ha":1260,"o":"m 637 338 b 401 86 637 101 620 86 b 164 338 193 86 164 116 l 164 666 b 401 919 164 888 193 919 b 637 666 620 919 637 904 l 637 338 m 637 0 l 1162 0 l 1162 97 l 732 97 l 732 472 l 1143 472 l 1143 569 l 732 569 l 732 908 l 1165 908 l 1165 1005 l 637 1005 l 637 930 l 634 930 b 416 1016 615 1005 507 1016 b 69 672 157 1016 69 966 l 69 333 b 416 -11 69 38 157 -11 b 634 68 540 -11 593 5 l 637 68 l 637 0 "},"˛":{"x_min":78.9375,"x_max":307.609375,"ha":283,"o":"m 209 0 b 78 -190 141 -38 78 -126 b 200 -288 78 -250 121 -288 b 307 -269 234 -288 281 -280 l 291 -230 b 230 -241 277 -236 249 -241 b 157 -175 182 -241 157 -212 b 262 0 157 -116 212 -47 l 209 0 "},"ð":{"x_min":59.796875,"x_max":571.03125,"ha":644,"o":"m 176 783 l 338 867 b 476 625 406 810 447 730 l 473 622 b 304 697 432 678 394 697 b 59 343 88 697 59 625 b 315 -10 59 61 81 -10 b 571 354 549 -10 571 61 b 418 908 571 561 568 776 l 561 982 l 515 1032 l 363 953 b 165 1032 307 996 235 1019 l 130 957 b 273 907 180 950 232 932 l 130 833 l 176 783 m 155 343 b 315 617 155 596 176 617 b 476 343 454 617 476 596 b 315 69 476 90 454 69 b 155 343 176 69 155 90 "},"T":{"x_min":9.53125,"x_max":643.8125,"ha":667,"o":"m 279 0 l 374 0 l 374 908 l 643 908 l 643 1005 l 9 1005 l 9 908 l 279 908 l 279 0 "},"š":{"x_min":71.421875,"x_max":560.0625,"ha":643,"o":"m 71 219 b 304 -11 71 8 144 -11 b 560 215 528 -11 560 48 b 323 400 560 370 528 387 b 163 516 176 408 163 416 b 306 638 163 626 185 638 b 466 523 437 638 466 632 l 553 523 b 310 719 553 672 513 719 b 76 512 104 719 76 661 b 298 319 76 355 124 329 b 472 209 463 309 472 302 b 306 69 472 90 447 69 b 158 219 177 69 155 97 l 71 219 m 270 788 l 362 788 l 516 982 l 428 982 l 316 844 l 203 982 l 116 982 l 270 788 "},"℮":{"x_min":47.890625,"x_max":1166.734375,"ha":1239,"o":"m 1166 488 l 1166 502 b 605 1016 1166 786 916 1016 b 47 502 296 1016 47 786 b 605 -9 47 219 296 -9 b 1048 188 785 -9 948 69 l 968 188 b 607 18 879 86 751 18 b 264 170 473 18 352 77 b 253 202 257 179 253 190 l 253 481 b 260 488 253 487 256 488 l 1166 488 m 961 525 b 954 515 961 522 958 515 l 260 515 b 253 525 256 515 253 522 l 253 800 b 265 834 253 813 257 826 b 607 986 354 926 475 986 b 947 840 740 986 859 927 b 961 805 955 830 961 818 l 961 525 "},"Þ":{"x_min":83.03125,"x_max":700.96875,"ha":746,"o":"m 178 763 l 469 763 b 605 554 574 763 605 738 b 454 344 605 383 568 344 l 178 344 l 178 763 m 83 0 l 178 0 l 178 247 l 443 247 b 700 554 597 247 700 286 b 496 861 700 737 665 861 l 178 861 l 178 1005 l 83 1005 l 83 0 "},"j":{"x_min":28.578125,"x_max":182.390625,"ha":283,"o":"m 95 -111 b 28 -166 95 -159 81 -166 l 28 -244 b 61 -247 39 -247 49 -247 b 182 -130 141 -247 182 -209 l 182 708 l 95 708 l 95 -111 m 95 887 l 182 887 l 182 1005 l 95 1005 l 95 887 "},"1":{"x_min":112.96875,"x_max":476.390625,"ha":772,"o":"m 381 0 l 476 0 l 476 1005 l 349 1005 l 112 705 l 176 645 l 378 908 l 381 908 l 381 0 "},"›":{"x_min":80,"x_max":322,"ha":411,"o":"m 80 118 l 177 118 l 322 368 l 192 618 l 96 618 l 222 368 l 80 118 "},"ı":{"x_min":95.28125,"x_max":182.390625,"ha":283,"o":"m 95 0 l 182 0 l 182 708 l 95 708 l 95 0 "},"ℓ":{"x_min":40.828125,"x_max":623.390625,"ha":669,"o":"m 577 208 b 390 70 544 144 477 70 b 236 301 310 70 238 134 l 236 348 b 519 872 406 520 519 691 b 353 1098 519 998 466 1098 b 149 762 255 1098 149 1019 l 149 369 b 40 270 117 334 80 305 l 70 215 b 149 281 98 237 125 262 b 151 263 151 276 151 269 b 372 -4 155 120 217 -4 b 623 169 480 -4 564 55 l 577 208 m 236 769 b 353 1026 236 961 300 1026 b 454 869 427 1026 454 962 b 236 443 454 723 359 581 l 236 769 "},"ä":{"x_min":59.890625,"x_max":558.0625,"ha":643,"o":"m 479 0 l 558 0 l 558 518 b 321 719 558 655 514 719 b 84 550 104 719 84 636 l 84 512 l 171 512 b 317 638 171 602 174 638 b 470 498 461 638 470 602 l 470 369 l 468 369 b 276 433 436 418 408 433 b 59 211 91 433 59 350 b 276 -11 59 75 99 -11 b 479 61 378 -11 428 5 l 479 0 m 147 215 b 313 352 147 323 197 352 b 479 215 428 352 479 323 b 313 77 479 106 428 77 b 147 215 197 77 147 106 m 164 805 l 251 805 l 251 923 l 164 923 l 164 805 m 379 805 l 466 805 l 466 923 l 379 923 l 379 805 "},"<":{"x_min":63.96875,"x_max":752.703125,"ha":833,"o":"m 752 714 l 63 391 l 63 311 l 752 -11 l 752 75 l 160 351 l 752 627 l 752 714 "},"£":{"x_min":59.890625,"x_max":680.5625,"ha":772,"o":"m 59 405 l 168 405 b 172 241 171 348 172 293 b 59 97 172 133 144 105 l 59 0 l 680 0 l 680 97 l 219 97 l 219 100 b 268 245 258 122 268 175 b 262 405 268 290 266 341 l 548 405 l 548 494 l 258 494 b 249 797 254 587 249 695 b 411 919 249 880 266 919 b 592 720 571 919 592 881 l 671 720 l 671 793 b 417 1016 671 961 598 1016 b 153 797 215 1016 153 950 b 164 494 153 716 159 608 l 59 494 l 59 405 "},"¹":{"x_min":63.96875,"x_max":326.671875,"ha":501,"o":"m 239 406 l 326 406 l 326 1005 l 210 1005 l 63 827 l 115 790 l 236 941 l 239 941 l 239 406 "},"t":{"x_min":23.140625,"x_max":430.109375,"ha":463,"o":"m 95 134 b 258 -11 95 29 130 -11 b 430 238 359 -11 430 12 l 351 238 b 257 69 351 81 322 69 b 182 154 200 69 182 95 l 182 627 l 406 627 l 406 708 l 182 708 l 182 872 l 95 872 l 95 708 l 23 708 l 23 627 l 95 627 l 95 134 "},"¬":{"x_min":63.96875,"x_max":752.703125,"ha":833,"o":"m 63 448 l 673 448 l 673 150 l 752 150 l 752 529 l 63 529 l 63 448 "},"ù":{"x_min":72.140625,"x_max":558.0625,"ha":643,"o":"m 558 708 l 470 708 l 470 261 b 291 69 470 111 397 69 b 159 229 176 69 159 147 l 159 708 l 72 708 l 72 208 b 276 -11 72 70 115 -11 b 468 91 377 -11 424 15 l 470 91 l 470 0 l 558 0 l 558 708 m 332 788 l 401 788 l 250 981 l 144 981 l 332 788 "},"W":{"x_min":14,"x_max":1247,"ha":1286,"o":"m 850 0 l 989 0 l 1247 1005 l 1154 1005 l 923 97 l 920 97 l 702 1005 l 558 1005 l 340 97 l 337 97 l 106 1005 l 14 1005 l 271 0 l 410 0 l 629 908 l 631 908 l 850 0 "},"ï":{"x_min":-12.25,"x_max":289.921875,"ha":283,"o":"m 95 0 l 182 0 l 182 708 l 95 708 l 95 0 m -12 805 l 74 805 l 74 923 l -12 923 l -12 805 m 202 805 l 289 805 l 289 923 l 202 923 l 202 805 "},">":{"x_min":63.96875,"x_max":752.703125,"ha":833,"o":"m 63 -11 l 752 311 l 752 391 l 63 714 l 63 627 l 656 351 l 63 75 l 63 -11 "},"v":{"x_min":10.21875,"x_max":522,"ha":542,"o":"m 204 0 l 327 0 l 522 708 l 432 708 l 267 88 l 264 88 l 100 708 l 10 708 l 204 0 "},"û":{"x_min":71.9375,"x_max":558.046875,"ha":643,"o":"m 558 708 l 470 708 l 470 261 b 291 69 470 111 397 69 b 159 229 176 69 159 147 l 159 708 l 71 708 l 71 208 b 276 -11 71 70 115 -11 b 468 91 376 -11 424 15 l 470 91 l 470 0 l 558 0 l 558 708 m 115 788 l 202 788 l 315 926 l 427 788 l 515 788 l 361 982 l 269 982 l 115 788 "},"Ò":{"x_min":69.421875,"x_max":763.578125,"ha":850,"o":"m 668 338 b 416 86 668 116 639 86 b 164 338 193 86 164 116 l 164 666 b 416 919 164 888 193 919 b 668 666 639 919 668 888 l 668 338 m 69 333 b 416 -11 69 38 157 -11 b 763 333 675 -11 763 38 l 763 672 b 416 1016 763 966 675 1016 b 69 672 157 1016 69 966 l 69 333 m 432 1051 l 502 1051 l 351 1244 l 245 1244 l 432 1051 "},"&":{"x_min":83.03125,"x_max":763.578125,"ha":772,"o":"m 178 393 b 265 497 178 468 219 497 b 296 484 288 497 292 491 l 504 226 l 504 187 b 353 86 504 113 468 86 b 178 225 220 86 178 118 l 178 393 m 691 0 l 763 68 l 615 243 l 615 561 l 519 561 l 519 358 l 258 686 b 206 805 221 731 206 763 b 348 919 206 911 251 919 b 477 833 457 919 477 880 l 477 743 l 564 743 l 564 827 b 340 1016 564 936 559 1016 b 119 812 149 1016 119 959 b 220 586 119 712 153 673 b 83 308 140 579 83 537 b 344 -11 83 47 111 -11 b 589 120 488 -11 563 11 l 691 0 "},"˝":{"x_min":-56,"x_max":419,"ha":283,"o":"m -56 788 l 13 788 l 201 981 l 95 981 l -56 788 m 161 788 l 231 788 l 419 981 l 312 981 l 161 788 "},"Ð":{"x_min":0,"x_max":762.21875,"ha":849,"o":"m 83 0 l 446 0 b 762 433 669 0 762 80 l 762 652 b 460 1005 762 861 724 1005 l 83 1005 l 83 569 l 0 569 l 0 480 l 83 480 l 83 0 m 178 908 l 476 908 b 666 502 637 908 666 833 b 476 97 666 183 634 97 l 178 97 l 178 480 l 421 480 l 421 569 l 178 569 l 178 908 "},"I":{"x_min":103.4375,"x_max":198.71875,"ha":308,"o":"m 103 0 l 198 0 l 198 1005 l 103 1005 l 103 0 "},"ˉ":{"x_min":-61.25,"x_max":338.921875,"ha":283,"o":"m -61 841 l 338 841 l 338 905 l -61 905 l -61 841 "},"G":{"x_min":69.421875,"x_max":744.53125,"ha":824,"o":"m 393 397 l 649 397 l 649 297 b 416 86 649 87 605 86 b 164 338 193 86 164 116 l 164 666 b 416 919 164 888 193 919 b 649 744 616 919 649 898 l 649 708 l 744 708 l 744 809 b 416 1016 744 1000 609 1016 b 69 672 157 1016 69 966 l 69 333 b 416 -11 69 38 157 -11 b 744 269 628 -11 744 0 l 744 494 l 393 494 l 393 397 "},"`":{"x_min":-33.25,"x_max":224,"ha":283,"o":"m 154 788 l 224 788 l 72 981 l -33 981 l 154 788 "},"·":{"x_min":118.421875,"x_max":259.96875,"ha":386,"o":"m 118 444 b 189 372 118 404 149 372 b 259 444 228 372 259 404 b 189 516 259 484 228 516 b 118 444 149 516 118 484 "},"r":{"x_min":72.140625,"x_max":483.1875,"ha":514,"o":"m 72 0 l 159 0 l 159 493 b 291 638 159 590 204 640 b 404 472 390 638 405 602 l 483 472 l 483 529 b 322 719 483 670 432 719 b 161 622 235 719 194 690 l 159 622 l 159 708 l 72 708 l 72 0 "},"¿":{"x_min":34.03125,"x_max":545.8125,"ha":592,"o":"m 291 427 b 175 318 291 370 281 362 b 34 5 70 273 34 248 b 289 -247 34 -161 62 -247 b 545 -31 417 -247 545 -237 l 545 73 l 458 73 b 285 -150 458 -140 442 -150 b 121 8 125 -150 121 -108 b 198 225 121 186 134 195 b 386 438 374 304 386 319 l 386 497 l 291 497 l 291 427 m 291 641 l 386 641 l 386 769 l 291 769 l 291 641 "},"ý":{"x_min":15,"x_max":516,"ha":542,"o":"m 95 -255 b 136 -261 104 -259 122 -261 b 329 -73 246 -261 299 -197 l 516 708 l 428 708 l 280 88 l 277 88 l 100 708 l 15 708 l 217 0 l 257 0 b 95 -172 224 -150 205 -172 l 95 -255 m 179 788 l 249 788 l 437 981 l 330 981 l 179 788 "},"x":{"x_min":26,"x_max":530,"ha":567,"o":"m 26 0 l 128 0 l 278 288 l 427 0 l 530 0 l 322 368 l 510 708 l 414 708 l 278 448 l 141 708 l 45 708 l 227 368 l 26 0 "},"è":{"x_min":59.890625,"x_max":558.0625,"ha":643,"o":"m 155 422 b 313 638 155 572 157 638 b 470 422 468 638 470 572 l 155 422 m 558 333 l 558 440 b 315 719 558 633 524 719 b 59 354 106 719 59 647 b 315 -11 59 66 87 -11 b 558 184 524 -11 558 43 l 558 211 l 470 211 b 300 69 470 72 441 69 b 155 268 181 69 155 113 l 155 333 l 558 333 m 332 788 l 401 788 l 250 981 l 144 981 l 332 788 "},"º":{"x_min":31.3125,"x_max":379.75,"ha":419,"o":"m 110 791 l 110 794 b 205 944 110 931 125 944 b 300 793 285 944 300 931 b 205 641 300 654 285 641 b 110 791 125 641 110 654 m 31 793 b 205 569 31 613 44 569 b 379 793 366 569 379 613 b 205 1016 379 972 366 1016 b 31 793 44 1016 31 972 "},"Ø":{"x_min":51.15625,"x_max":780.84375,"ha":850,"o":"m 652 825 b 667 666 665 791 667 739 l 667 338 b 416 86 667 116 639 86 b 219 118 317 86 258 91 l 652 825 m 180 180 b 164 338 166 216 164 267 l 164 666 b 416 918 164 888 192 918 b 610 886 512 918 572 913 l 180 180 m 108 -66 l 168 33 b 416 -11 224 -1 304 -11 b 763 333 674 -11 763 38 l 763 671 b 712 924 763 793 748 873 l 780 1036 l 723 1071 l 662 971 b 416 1016 605 1007 526 1016 b 68 671 157 1016 68 966 l 68 333 b 119 80 68 211 83 131 l 51 -31 l 108 -66 "},"∞":{"x_min":69.421875,"x_max":994.96875,"ha":1088,"o":"m 994 412 b 797 625 994 537 916 625 b 539 456 681 625 611 538 b 283 625 465 543 386 625 b 69 405 160 625 69 531 b 273 191 69 284 163 191 b 533 359 386 191 461 275 b 786 191 631 248 699 191 b 994 411 894 191 994 277 l 994 412 m 281 252 b 134 404 193 252 134 320 b 273 566 134 490 185 566 b 499 404 372 566 438 480 b 284 252 442 343 372 252 l 281 252 m 789 566 b 931 406 869 566 931 508 b 792 252 931 331 880 252 b 570 411 717 252 662 308 b 788 566 619 459 695 566 l 789 566 "},"μ":{"x_min":72.140625,"x_max":558.0625,"ha":643,"o":"m 72 -246 l 159 -246 l 159 30 b 270 -10 187 4 221 -10 b 468 92 370 -10 419 11 l 470 92 l 470 0 l 558 0 l 558 708 l 470 708 l 470 261 b 291 69 470 111 397 69 b 159 222 167 69 159 147 l 159 708 l 72 708 l 72 -246 "},"÷":{"x_min":63.96875,"x_max":752.703125,"ha":833,"o":"m 63 311 l 752 311 l 752 391 l 63 391 l 63 311 m 326 66 b 409 -16 326 22 364 -16 b 490 66 451 -16 490 25 b 408 150 490 111 451 150 b 326 66 364 150 326 112 m 326 636 b 408 552 326 590 363 552 b 490 636 453 552 490 590 b 408 719 490 681 453 719 b 326 636 363 719 326 681 "},"h":{"x_min":72.140625,"x_max":558.0625,"ha":643,"o":"m 72 0 l 159 0 l 159 447 b 338 638 159 597 232 638 b 470 479 453 638 470 561 l 470 0 l 558 0 l 558 500 b 353 719 558 637 514 719 b 161 616 253 719 205 693 l 159 616 l 159 1005 l 72 1005 l 72 0 "},".":{"x_min":141.5625,"x_max":236.828125,"ha":386,"o":"m 141 0 l 236 0 l 236 127 l 141 127 l 141 0 "},";":{"x_min":133.390625,"x_max":236.828125,"ha":386,"o":"m 141 0 l 182 0 b 133 -94 182 -84 170 -94 l 133 -150 b 236 -23 202 -150 236 -141 l 236 127 l 141 127 l 141 0 m 141 540 l 236 540 l 236 668 l 141 668 l 141 540 "},"f":{"x_min":34.03125,"x_max":362.0625,"ha":360,"o":"m 119 0 l 206 0 l 206 627 l 359 627 l 359 708 l 206 708 l 206 836 b 304 936 206 916 247 936 b 362 934 323 936 343 936 l 362 1013 b 300 1016 341 1015 321 1016 b 119 836 179 1016 119 966 l 119 708 l 34 708 l 34 627 l 119 627 l 119 0 "},"“":{"x_min":66.6875,"x_max":336.1875,"ha":411,"o":"m 240 727 l 336 727 l 336 855 l 295 855 b 336 950 295 940 307 950 l 336 1005 b 240 879 274 1005 240 997 l 240 727 m 66 727 l 161 727 l 161 855 l 121 855 b 161 950 121 940 133 950 l 161 1005 b 66 879 100 1005 66 997 l 66 727 "},"A":{"x_min":15,"x_max":766,"ha":797,"o":"m 572 309 l 208 309 l 383 908 l 397 908 l 572 309 m 666 0 l 766 0 l 457 1005 l 323 1005 l 15 0 l 114 0 l 178 212 l 602 212 l 666 0 "},"6":{"x_min":65.328125,"x_max":691.453125,"ha":772,"o":"m 671 758 b 378 1016 671 970 604 1016 b 65 704 152 1016 65 979 l 65 301 b 378 -11 65 26 152 -11 b 691 301 604 -11 691 26 b 398 613 691 559 637 613 b 163 525 273 613 219 606 l 160 525 l 160 720 b 387 919 160 905 215 919 b 583 758 566 919 575 895 l 671 758 m 596 305 b 378 86 596 98 563 86 b 160 305 193 86 160 98 b 378 525 160 505 186 525 b 596 305 563 525 596 512 "},"‘":{"x_min":66.6875,"x_max":161.96875,"ha":233,"o":"m 66 727 l 161 727 l 161 855 l 121 855 b 161 950 121 940 133 950 l 161 1005 b 66 879 100 1005 66 997 l 66 727 "},"π":{"x_min":13.609375,"x_max":743.171875,"ha":788,"o":"m 733 654 l 743 736 l 205 736 b 13 698 103 736 47 720 l 29 636 b 183 654 57 647 95 654 b 83 0 176 458 136 151 l 172 0 b 274 654 224 133 266 466 l 530 654 l 530 198 b 553 0 530 80 541 22 l 642 0 b 622 208 631 36 622 87 l 622 654 l 733 654 "},"O":{"x_min":69.421875,"x_max":763.578125,"ha":850,"o":"m 668 338 b 416 86 668 116 639 86 b 164 338 193 86 164 116 l 164 666 b 416 919 164 888 193 919 b 668 666 639 919 668 888 l 668 338 m 69 333 b 416 -11 69 38 157 -11 b 763 333 675 -11 763 38 l 763 672 b 416 1016 763 966 675 1016 b 69 672 157 1016 69 966 l 69 333 "},"n":{"x_min":72.140625,"x_max":558.0625,"ha":643,"o":"m 72 0 l 159 0 l 159 447 b 338 638 159 597 232 638 b 470 479 453 638 470 561 l 470 0 l 558 0 l 558 500 b 353 719 558 637 514 719 b 161 616 253 719 205 693 l 159 616 l 159 708 l 72 708 l 72 0 "},"3":{"x_min":65.328125,"x_max":691.453125,"ha":772,"o":"m 319 465 b 596 284 567 465 596 462 b 375 86 596 111 583 86 b 152 323 155 86 152 113 l 65 323 l 65 254 b 385 -11 65 36 126 -11 b 691 290 671 -11 691 55 b 568 512 691 459 643 488 l 568 515 b 686 744 661 543 686 616 b 374 1016 686 941 661 1016 b 87 786 202 1016 87 1000 l 87 698 l 174 698 l 174 776 b 385 919 174 913 236 919 b 590 750 585 919 590 881 b 319 554 590 561 556 554 l 319 465 "},"9":{"x_min":65.328125,"x_max":691.453125,"ha":772,"o":"m 85 247 b 378 -11 85 34 152 -11 b 691 301 604 -11 691 26 l 691 704 b 378 1016 691 979 604 1016 b 65 704 152 1016 65 979 b 357 391 65 445 119 391 b 593 480 483 391 537 398 l 596 480 l 596 284 b 368 86 596 100 541 86 b 172 247 190 86 181 109 l 85 247 m 160 700 b 378 919 160 906 193 919 b 596 700 563 919 596 906 b 378 480 596 500 570 480 b 160 700 193 480 160 493 "},"l":{"x_min":95.28125,"x_max":182.390625,"ha":283,"o":"m 95 0 l 182 0 l 182 1005 l 95 1005 l 95 0 "},"¤":{"x_min":41,"x_max":716,"ha":772,"o":"m 41 212 l 95 155 l 170 233 b 378 158 227 186 299 158 b 586 233 457 158 529 186 l 661 155 l 716 212 l 641 289 b 716 503 688 347 716 422 b 641 718 716 584 687 660 l 716 793 l 661 850 l 586 773 b 378 847 528 821 456 847 b 170 773 300 847 228 821 l 95 850 l 41 793 l 115 718 b 41 503 69 660 41 584 b 115 289 41 422 68 347 l 41 212 m 128 503 b 378 767 128 655 235 767 b 628 503 513 767 628 655 b 378 238 628 350 513 238 b 128 503 243 238 128 350 "},"∂":{"x_min":59.890625,"x_max":669.671875,"ha":754,"o":"m 138 969 b 321 1037 176 1001 236 1037 b 579 608 460 1037 579 868 b 578 544 579 590 579 561 l 577 544 b 349 681 555 587 476 681 b 59 320 197 681 59 541 b 318 -5 59 156 142 -5 b 669 580 549 -5 669 248 b 329 1116 669 947 502 1116 b 106 1037 220 1116 151 1075 l 138 969 m 325 73 b 151 322 219 73 151 177 b 362 604 151 477 246 604 b 567 445 470 604 545 511 b 326 73 548 248 461 73 l 325 73 "},"4":{"x_min":29.0625,"x_max":715.0625,"ha":772,"o":"m 495 325 l 108 325 l 493 908 l 495 908 l 495 325 m 495 0 l 591 0 l 591 227 l 715 227 l 715 325 l 591 325 l 591 1005 l 449 1005 l 29 366 l 29 227 l 495 227 l 495 0 "},"p":{"x_min":80.3125,"x_max":594.8125,"ha":668,"o":"m 499 354 b 333 77 499 109 469 77 b 167 395 187 77 167 130 b 333 630 167 569 208 630 b 499 354 469 630 499 598 m 80 -247 l 167 -247 l 167 88 l 170 88 b 348 -11 202 18 250 -11 b 594 354 541 -11 594 76 b 362 719 594 631 541 719 b 170 619 283 719 217 702 l 167 619 l 167 708 l 80 708 l 80 -247 "},"‡":{"x_min":87.109375,"x_max":443.71875,"ha":542,"o":"m 221 0 l 308 0 l 308 266 l 443 266 l 443 347 l 308 347 l 308 683 l 443 683 l 443 763 l 308 763 l 308 1005 l 221 1005 l 221 763 l 87 763 l 87 683 l 221 683 l 221 347 l 87 347 l 87 266 l 221 266 l 221 0 "},"à":{"x_min":59.890625,"x_max":558.0625,"ha":643,"o":"m 479 0 l 558 0 l 558 518 b 321 719 558 655 514 719 b 84 550 104 719 84 636 l 84 512 l 171 512 b 317 638 171 602 174 638 b 470 498 461 638 470 602 l 470 369 l 468 369 b 276 433 436 418 408 433 b 59 211 91 433 59 350 b 276 -11 59 75 99 -11 b 479 61 378 -11 428 5 l 479 0 m 147 215 b 313 352 147 323 197 352 b 479 215 428 352 479 323 b 313 77 479 106 428 77 b 147 215 197 77 147 106 m 332 788 l 401 788 l 250 981 l 144 981 l 332 788 "},"Ü":{"x_min":83.03125,"x_max":725.46875,"ha":825,"o":"m 83 256 b 402 -11 83 41 172 -11 b 725 256 637 -11 725 41 l 725 1005 l 630 1005 l 630 227 b 402 86 630 119 579 86 b 178 227 228 86 178 119 l 178 1005 l 83 1005 l 83 256 m 253 1068 l 340 1068 l 340 1186 l 253 1186 l 253 1068 m 468 1068 l 555 1068 l 555 1186 l 468 1186 l 468 1068 "},"ó":{"x_min":59.46875,"x_max":571.25,"ha":644,"o":"m 154 354 b 315 638 154 618 176 638 b 475 354 454 638 475 618 b 315 69 475 90 454 69 b 154 354 176 69 154 90 m 59 354 b 315 -11 59 61 89 -11 b 571 354 541 -11 571 61 b 315 719 571 636 544 719 b 59 354 86 719 59 636 m 229 788 l 299 788 l 486 981 l 380 981 l 229 788 "},"√":{"x_min":46,"x_max":774,"ha":793,"o":"m 774 1174 l 704 1174 l 447 1 b 429 -98 441 -32 433 -72 l 428 -97 b 405 2 422 -70 413 -30 l 225 540 l 46 469 l 66 411 l 168 449 l 388 -214 l 471 -214 l 774 1174 "}}}
